<svg xmlns="http://www.w3.org/2000/svg" xmlns:xlink="http://www.w3.org/1999/xlink" width="500" zoomAndPan="magnify" viewBox="0 0 375 374.999991" height="500" preserveAspectRatio="xMidYMid meet" version="1.0"><defs><g/><clipPath id="8a72968c2f"><path d="M 34.304688 27.535156 L 276 27.535156 L 276 269 L 34.304688 269 Z M 34.304688 27.535156 " clip-rule="nonzero"/></clipPath><clipPath id="4348dc0fed"><path d="M 98 52 L 339.554688 52 L 339.554688 293.035156 L 98 293.035156 Z M 98 52 " clip-rule="nonzero"/></clipPath><clipPath id="0650dff790"><path d="M 149 55 L 268 55 L 268 175 L 149 175 Z M 149 55 " clip-rule="nonzero"/></clipPath><clipPath id="e6d84b066b"><path d="M 201.160156 51.726562 L 271.121094 128.273438 L 215.921875 178.722656 L 145.960938 102.179688 Z M 201.160156 51.726562 " clip-rule="nonzero"/></clipPath><clipPath id="800ee36f34"><path d="M 207.230469 58.371094 L 264.996094 121.574219 C 268.347656 125.242188 268.09375 130.933594 264.425781 134.289062 L 222.511719 172.59375 C 218.84375 175.949219 213.152344 175.691406 209.796875 172.023438 L 152.03125 108.820312 C 148.679688 105.152344 148.933594 99.460938 152.601562 96.105469 L 194.515625 57.796875 C 198.183594 54.445312 203.878906 54.703125 207.230469 58.371094 Z M 207.230469 58.371094 " clip-rule="nonzero"/></clipPath><clipPath id="31984a2aa9"><path d="M 0 0 L 119 0 L 119 120 L 0 120 Z M 0 0 " clip-rule="nonzero"/></clipPath><clipPath id="da113aaa8a"><path d="M 52.160156 -3.273438 L 122.121094 73.273438 L 66.921875 123.722656 L -3.039062 47.179688 Z M 52.160156 -3.273438 " clip-rule="nonzero"/></clipPath><clipPath id="98b22a9f0c"><path d="M 58.230469 3.371094 L 115.996094 66.574219 C 119.347656 70.242188 119.09375 75.933594 115.425781 79.289062 L 73.511719 117.59375 C 69.84375 120.949219 64.152344 120.691406 60.796875 117.023438 L 3.03125 53.820312 C -0.320312 50.152344 -0.0664062 44.460938 3.601562 41.105469 L 45.515625 2.796875 C 49.183594 -0.554688 54.878906 -0.296875 58.230469 3.371094 Z M 58.230469 3.371094 " clip-rule="nonzero"/></clipPath><clipPath id="9b7e9f33b2"><rect x="0" width="119" y="0" height="120"/></clipPath><clipPath id="e313623a05"><path d="M 302.8125 190.195312 L 339.511719 190.195312 L 339.511719 261.847656 L 302.8125 261.847656 Z M 302.8125 190.195312 " clip-rule="nonzero"/></clipPath><clipPath id="4fd875f438"><path d="M 0.8125 0.195312 L 37.511719 0.195312 L 37.511719 71.847656 L 0.8125 71.847656 Z M 0.8125 0.195312 " clip-rule="nonzero"/></clipPath><clipPath id="af7d5ea71d"><rect x="0" width="38" y="0" height="72"/></clipPath><clipPath id="03366bfb8c"><path d="M 191 64 L 309 64 L 309 184 L 191 184 Z M 191 64 " clip-rule="nonzero"/></clipPath><clipPath id="ff3f4f2f91"><path d="M 242.695312 60.5625 L 312.65625 137.109375 L 257.457031 187.558594 L 187.496094 111.011719 Z M 242.695312 60.5625 " clip-rule="nonzero"/></clipPath><clipPath id="6260a47a41"><path d="M 248.769531 67.207031 L 306.535156 130.40625 C 309.886719 134.078125 309.632812 139.769531 305.960938 143.121094 L 264.050781 181.429688 C 260.382812 184.785156 254.6875 184.527344 251.335938 180.859375 L 193.570312 117.65625 C 190.214844 113.988281 190.472656 108.292969 194.140625 104.941406 L 236.054688 66.632812 C 239.722656 63.28125 245.414062 63.535156 248.769531 67.207031 Z M 248.769531 67.207031 " clip-rule="nonzero"/></clipPath><clipPath id="0771189e09"><path d="M 0 0 L 118 0 L 118 120 L 0 120 Z M 0 0 " clip-rule="nonzero"/></clipPath><clipPath id="850f8f0063"><path d="M 51.695312 -3.4375 L 121.65625 73.109375 L 66.457031 123.558594 L -3.503906 47.011719 Z M 51.695312 -3.4375 " clip-rule="nonzero"/></clipPath><clipPath id="a4f76b4d52"><path d="M 57.769531 3.207031 L 115.535156 66.40625 C 118.886719 70.078125 118.632812 75.769531 114.960938 79.121094 L 73.050781 117.429688 C 69.382812 120.785156 63.6875 120.527344 60.335938 116.859375 L 2.570312 53.65625 C -0.785156 49.988281 -0.527344 44.292969 3.140625 40.941406 L 45.054688 2.632812 C 48.722656 -0.71875 54.414062 -0.464844 57.769531 3.207031 Z M 57.769531 3.207031 " clip-rule="nonzero"/></clipPath><clipPath id="191daee887"><rect x="0" width="118" y="0" height="120"/></clipPath><clipPath id="37a5152ec5"><path d="M 310 204 L 360.921875 204 L 360.921875 255.621094 L 310 255.621094 Z M 310 204 " clip-rule="nonzero"/></clipPath><clipPath id="d2e3079ab1"><path d="M 187 83.121094 L 240 83.121094 L 240 135 L 187 135 Z M 187 83.121094 " clip-rule="nonzero"/></clipPath><clipPath id="b022517b47"><rect x="0" width="279" y="0" height="95"/></clipPath></defs><rect x="-37.5" width="450" fill="#ffffff" y="-37.499999" height="449.999989" fill-opacity="1"/><rect x="-37.5" width="450" fill="#ffffff" y="-37.499999" height="449.999989" fill-opacity="1"/><g clip-path="url(#8a72968c2f)"><path fill="#0b4008" d="M 43.8125 27.570312 C 37.933594 33.4375 34.304688 41.554688 34.304688 50.511719 L 34.304688 63.515625 L 124.707031 159.277344 C 133.488281 155.796875 143.886719 157.601562 150.992188 164.722656 L 168.273438 182 L 168.246094 182.027344 C 168.410156 182.152344 168.574219 182.304688 168.71875 182.457031 L 209.003906 228.054688 C 209.492188 228.601562 209.460938 229.425781 208.945312 229.945312 C 208.425781 230.464844 207.601562 230.496094 207.050781 230.007812 L 161.449219 189.71875 C 161.300781 189.597656 161.140625 189.414062 161.003906 189.261719 L 159.152344 191.125 C 159.300781 191.277344 159.464844 191.398438 159.613281 191.550781 L 199.910156 237.148438 C 200.398438 237.699219 200.367188 238.550781 199.847656 239.070312 C 199.328125 239.589844 198.503906 239.589844 197.957031 239.101562 L 152.355469 198.816406 C 152.207031 198.691406 152.042969 198.507812 151.898438 198.386719 L 150.046875 200.21875 C 150.207031 200.371094 150.371094 200.492188 150.519531 200.644531 L 190.8125 246.242188 C 191.300781 246.792969 191.273438 247.617188 190.753906 248.167969 C 190.234375 248.65625 189.378906 248.683594 188.859375 248.195312 L 143.25 207.910156 C 143.097656 207.789062 142.9375 207.605469 142.804688 207.484375 L 140.953125 209.3125 C 141.113281 209.464844 141.277344 209.589844 141.425781 209.742188 L 181.707031 255.339844 C 182.199219 255.886719 182.167969 256.710938 181.648438 257.230469 C 181.128906 257.75 180.304688 257.78125 179.753906 257.292969 L 134.152344 217.003906 C 134.023438 216.882812 133.84375 216.730469 133.710938 216.546875 L 116.425781 199.273438 C 109.332031 192.191406 107.511719 181.816406 110.976562 173.023438 L 34.304688 100.628906 L 34.304688 236.019531 C 34.304688 253.933594 48.832031 268.460938 66.753906 268.460938 L 252.25 268.460938 C 261.226562 268.460938 269.34375 264.832031 275.203125 258.96875 L 43.8125 27.570312 " fill-opacity="1" fill-rule="nonzero"/></g><g clip-path="url(#4348dc0fed)"><path fill="#355d33" d="M 258.234375 143.269531 C 264.917969 129.046875 260.277344 109.101562 245.691406 94.5 C 228.078125 76.90625 192.21875 63.28125 178.511719 76.992188 C 164.796875 90.707031 178.421875 126.5625 196.035156 144.15625 C 210.621094 158.761719 230.582031 163.378906 244.773438 156.714844 L 339.507812 257.078125 L 339.507812 270.078125 C 339.507812 279.054688 335.878906 287.171875 330.015625 293.03125 L 98.613281 61.636719 C 104.476562 55.757812 112.59375 52.128906 121.550781 52.128906 L 307.066406 52.128906 C 324.980469 52.128906 339.507812 66.65625 339.507812 84.578125 L 339.507812 219.996094 L 258.234375 143.269531 " fill-opacity="1" fill-rule="nonzero"/></g><g clip-path="url(#0650dff790)"><g clip-path="url(#e6d84b066b)"><g clip-path="url(#800ee36f34)"><g transform="matrix(1, 0, 0, 1, 149, 55)"><g clip-path="url(#9b7e9f33b2)"><g clip-path="url(#31984a2aa9)"><g clip-path="url(#da113aaa8a)"><g clip-path="url(#98b22a9f0c)"><path fill="#355d33" d="M 52.160156 -3.273438 L 122.121094 73.273438 L 66.921875 123.722656 L -3.039062 47.179688 Z M 52.160156 -3.273438 " fill-opacity="1" fill-rule="nonzero"/></g></g></g></g></g></g></g></g><g clip-path="url(#e313623a05)"><g transform="matrix(1, 0, 0, 1, 302, 190)"><g clip-path="url(#af7d5ea71d)"><g clip-path="url(#4fd875f438)"><path fill="#355d33" d="M 0.8125 0.195312 L 37.511719 0.195312 L 37.511719 71.875 L 0.8125 71.875 Z M 0.8125 0.195312 " fill-opacity="1" fill-rule="nonzero"/></g></g></g></g><g clip-path="url(#03366bfb8c)"><g clip-path="url(#ff3f4f2f91)"><g clip-path="url(#6260a47a41)"><g transform="matrix(1, 0, 0, 1, 191, 64)"><g clip-path="url(#191daee887)"><g clip-path="url(#0771189e09)"><g clip-path="url(#850f8f0063)"><g clip-path="url(#a4f76b4d52)"><path fill="#355d33" d="M 51.695312 -3.4375 L 121.65625 73.109375 L 66.457031 123.558594 L -3.503906 47.011719 Z M 51.695312 -3.4375 " fill-opacity="1" fill-rule="nonzero"/></g></g></g></g></g></g></g></g><path fill="#ffffff" d="M 341.109375 202.59375 C 341.441406 202.261719 341.441406 201.722656 341.109375 201.386719 L 242.640625 102.789062 C 242.308594 102.457031 241.769531 102.457031 241.4375 102.789062 L 208.160156 136.109375 C 207.996094 136.273438 207.914062 136.492188 207.914062 136.710938 C 207.914062 136.929688 207.996094 137.148438 208.160156 137.3125 L 306.632812 235.914062 C 306.789062 236.074219 307.003906 236.164062 307.234375 236.164062 C 307.460938 236.164062 307.675781 236.074219 307.835938 235.914062 Z M 341.109375 202.59375 " fill-opacity="1" fill-rule="nonzero"/><g clip-path="url(#37a5152ec5)"><path fill="#ffffff" d="M 344.828125 250.597656 L 355.777344 239.636719 C 358.917969 236.488281 360.648438 232.304688 360.648438 227.855469 C 360.648438 223.40625 358.917969 219.222656 355.777344 216.074219 L 344.828125 205.113281 C 344.667969 204.953125 344.453125 204.863281 344.226562 204.863281 C 344 204.863281 343.785156 204.953125 343.628906 205.113281 L 310.351562 238.433594 C 310.191406 238.59375 310.101562 238.8125 310.101562 239.035156 C 310.101562 239.265625 310.191406 239.480469 310.351562 239.636719 L 321.300781 250.597656 C 324.441406 253.746094 328.621094 255.476562 333.066406 255.476562 C 337.507812 255.476562 341.6875 253.746094 344.828125 250.597656 Z M 344.828125 250.597656 " fill-opacity="1" fill-rule="nonzero"/></g><g clip-path="url(#d2e3079ab1)"><path fill="#ffffff" d="M 239.277344 100.566406 C 239.488281 100.355469 239.574219 100.054688 239.5 99.761719 C 239.433594 99.472656 239.214844 99.242188 238.929688 99.152344 L 188.285156 83.230469 C 187.976562 83.132812 187.644531 83.21875 187.421875 83.449219 C 187.261719 83.613281 187.179688 83.824219 187.179688 84.042969 C 187.179688 84.136719 187.199219 84.234375 187.230469 84.328125 L 204.597656 133.570312 C 204.695312 133.847656 204.921875 134.050781 205.210938 134.117188 C 205.496094 134.179688 205.796875 134.09375 206 133.886719 Z M 239.277344 100.566406 " fill-opacity="1" fill-rule="nonzero"/></g><g transform="matrix(1, 0, 0, 1, 42, 262)"><g clip-path="url(#b022517b47)"><g fill="#355d33" fill-opacity="1"><g transform="translate(8.597832, 66.121139)"><g><path d="M 22.695312 -39.949219 C 28.761719 -39.949219 33.765625 -38.734375 37.707031 -36.308594 C 40.140625 -34.808594 41.992188 -32.871094 43.261719 -30.492188 C 44.484375 -28.191406 45.097656 -25.59375 45.097656 -22.695312 C 45.097656 -20.707031 44.761719 -18.539062 44.09375 -16.191406 L 41.46875 -7.355469 L 35.410156 -9.15625 L 41.539062 -7.621094 C 41.625 -7.957031 41.664062 -8.253906 41.664062 -8.519531 C 41.664062 -8.910156 41.609375 -9.3125 41.496094 -9.726562 C 41.296875 -10.460938 40.953125 -11.132812 40.457031 -11.742188 C 39.847656 -12.488281 39.101562 -13.046875 38.210938 -13.410156 C 37.546875 -13.683594 36.867188 -13.820312 36.175781 -13.820312 C 35.414062 -13.820312 34.6875 -13.644531 34 -13.292969 C 33.425781 -12.996094 32.945312 -12.613281 32.566406 -12.144531 C 32.945312 -12.613281 33.3125 -13.011719 33.671875 -13.335938 C 35 -14.546875 36.511719 -15.15625 38.207031 -15.15625 C 39.824219 -15.15625 41.261719 -14.636719 42.519531 -13.601562 C 43.300781 -12.960938 43.925781 -12.164062 44.398438 -11.21875 C 44.992188 -10.03125 45.289062 -8.75 45.289062 -7.375 L 38.972656 -7.375 L 45.285156 -7.609375 C 45.382812 -4.945312 44.515625 -2.421875 42.679688 -0.03125 C 41.179688 1.925781 39.230469 3.5 36.839844 4.699219 C 34.421875 5.90625 31.808594 6.507812 28.988281 6.507812 C 25.769531 6.507812 22.917969 5.875 20.445312 4.601562 C 17.4375 3.058594 15.347656 0.742188 14.179688 -2.339844 L 20.089844 -4.578125 L 24.945312 -0.53125 C 23.078125 1.703125 20.863281 3.433594 18.289062 4.65625 C 15.691406 5.890625 12.925781 6.507812 9.980469 6.507812 C 6.621094 6.507812 3.691406 5.796875 1.195312 4.378906 C -1.378906 2.910156 -3.324219 0.957031 -4.640625 -1.488281 C -5.886719 -3.800781 -6.507812 -6.25 -6.507812 -8.835938 C -6.507812 -9.933594 -6.40625 -11.003906 -6.195312 -12.046875 L -6.15625 -12.234375 C -5.640625 -14.445312 -4.804688 -16.421875 -3.640625 -18.164062 C -2.425781 -19.980469 -0.894531 -21.496094 0.960938 -22.707031 C 4.277344 -24.878906 8.132812 -25.960938 12.523438 -25.960938 C 16.710938 -25.960938 20.816406 -25.308594 24.839844 -24 L 22.886719 -17.992188 L 16.976562 -20.230469 L 18.566406 -24.425781 L 24.476562 -22.1875 L 18.441406 -24.054688 C 18.652344 -24.738281 18.804688 -25.320312 18.902344 -25.792969 C 18.957031 -26.074219 18.984375 -26.25 18.984375 -26.320312 L 25.300781 -26.320312 L 18.988281 -26.058594 C 19.003906 -25.761719 19.085938 -25.441406 19.242188 -25.089844 C 19.488281 -24.53125 19.855469 -24.0625 20.339844 -23.675781 C 20.722656 -23.367188 21.101562 -23.167969 21.484375 -23.066406 C 21.535156 -23.054688 21.566406 -23.046875 21.585938 -23.042969 C 21.53125 -23.050781 21.457031 -23.054688 21.359375 -23.054688 L 21.359375 -29.371094 L 27.277344 -31.589844 C 27.800781 -30.195312 28.0625 -28.757812 28.0625 -27.273438 C 28.0625 -25.609375 27.734375 -24.03125 27.085938 -22.546875 C 26.453125 -21.105469 25.542969 -19.808594 24.347656 -18.65625 C 21.9375 -16.332031 18.78125 -15.167969 14.875 -15.167969 C 11.347656 -15.167969 8.429688 -16.074219 6.121094 -17.878906 C 4.808594 -18.902344 3.796875 -20.109375 3.082031 -21.5 C 2.324219 -22.972656 1.945312 -24.558594 1.945312 -26.257812 C 1.945312 -28.605469 2.601562 -30.75 3.917969 -32.699219 C 5.042969 -34.367188 6.609375 -35.792969 8.617188 -36.976562 C 11.980469 -38.957031 16.671875 -39.949219 22.695312 -39.949219 Z M 22.695312 -27.3125 C 20.660156 -27.3125 18.9375 -27.175781 17.519531 -26.902344 C 16.421875 -26.691406 15.59375 -26.417969 15.03125 -26.089844 C 14.789062 -25.945312 14.601562 -25.8125 14.460938 -25.6875 C 14.425781 -25.65625 14.398438 -25.632812 14.378906 -25.609375 C 14.378906 -25.609375 14.382812 -25.617188 14.390625 -25.632812 C 14.519531 -25.820312 14.582031 -26.027344 14.582031 -26.257812 C 14.582031 -26.597656 14.496094 -26.9375 14.320312 -27.277344 C 14.191406 -27.535156 14.050781 -27.71875 13.90625 -27.832031 C 13.851562 -27.875 13.800781 -27.90625 13.753906 -27.929688 L 13.75 -27.933594 C 13.765625 -27.925781 13.785156 -27.917969 13.8125 -27.914062 C 14.0625 -27.84375 14.417969 -27.804688 14.875 -27.804688 C 15.285156 -27.804688 15.589844 -27.839844 15.78125 -27.902344 C 15.730469 -27.886719 15.664062 -27.835938 15.578125 -27.753906 C 15.589844 -27.765625 15.601562 -27.777344 15.605469 -27.785156 C 15.605469 -27.78125 15.601562 -27.773438 15.59375 -27.765625 C 15.5625 -27.722656 15.535156 -27.671875 15.507812 -27.613281 C 15.453125 -27.484375 15.425781 -27.371094 15.425781 -27.273438 C 15.425781 -27.230469 15.429688 -27.191406 15.445312 -27.152344 L 12.242188 -35.691406 L 21.359375 -35.691406 C 24.152344 -35.691406 26.441406 -34.972656 28.234375 -33.542969 C 29.351562 -32.648438 30.203125 -31.539062 30.789062 -30.222656 C 31.285156 -29.105469 31.5625 -27.894531 31.617188 -26.582031 L 31.621094 -26.453125 L 31.621094 -26.320312 C 31.621094 -24.707031 31.25 -22.707031 30.511719 -20.320312 L 30.453125 -20.132812 L 26.660156 -10.121094 L 20.933594 -11.984375 C 18.179688 -12.878906 15.375 -13.328125 12.523438 -13.328125 C 10.644531 -13.328125 9.09375 -12.929688 7.878906 -12.132812 C 7.023438 -11.574219 6.449219 -10.65625 6.15625 -9.378906 L 0 -10.808594 L 6.195312 -9.570312 C 6.148438 -9.339844 6.128906 -9.097656 6.128906 -8.835938 C 6.128906 -8.371094 6.246094 -7.917969 6.484375 -7.476562 C 6.652344 -7.164062 6.976562 -6.875 7.449219 -6.601562 C 8.007812 -6.285156 8.851562 -6.128906 9.980469 -6.128906 C 11.023438 -6.128906 11.984375 -6.335938 12.863281 -6.753906 C 13.765625 -7.183594 14.554688 -7.808594 15.234375 -8.621094 L 22.167969 -16.941406 L 26 -6.8125 C 26.007812 -6.785156 26.019531 -6.765625 26.027344 -6.753906 C 26.023438 -6.757812 26.019531 -6.761719 26.015625 -6.765625 C 26.042969 -6.734375 26.113281 -6.691406 26.21875 -6.636719 C 26.878906 -6.296875 27.804688 -6.128906 28.988281 -6.128906 C 29.816406 -6.128906 30.550781 -6.285156 31.1875 -6.605469 C 31.84375 -6.933594 32.335938 -7.308594 32.65625 -7.726562 C 32.710938 -7.796875 32.75 -7.855469 32.777344 -7.902344 L 32.78125 -7.90625 C 32.773438 -7.890625 32.765625 -7.871094 32.757812 -7.847656 C 32.679688 -7.644531 32.648438 -7.410156 32.65625 -7.140625 L 32.652344 -7.257812 L 32.652344 -7.375 C 32.652344 -6.761719 32.800781 -6.160156 33.097656 -5.566406 C 33.421875 -4.914062 33.886719 -4.34375 34.484375 -3.847656 C 35.5625 -2.960938 36.804688 -2.519531 38.207031 -2.519531 C 39.34375 -2.519531 40.386719 -2.804688 41.34375 -3.378906 C 41.65625 -3.566406 41.941406 -3.773438 42.191406 -4.003906 C 42.277344 -4.082031 42.351562 -4.15625 42.410156 -4.222656 C 42.417969 -4.230469 42.417969 -4.230469 42.421875 -4.234375 C 42.410156 -4.222656 42.402344 -4.210938 42.386719 -4.195312 C 41.648438 -3.277344 40.773438 -2.5625 39.761719 -2.046875 C 38.640625 -1.472656 37.445312 -1.183594 36.175781 -1.183594 C 35.207031 -1.183594 34.285156 -1.363281 33.414062 -1.71875 C 32.316406 -2.167969 31.394531 -2.855469 30.648438 -3.773438 C 29.570312 -5.101562 29.027344 -6.683594 29.027344 -8.519531 C 29.027344 -9.292969 29.113281 -10.015625 29.28125 -10.6875 L 29.316406 -10.820312 L 31.941406 -19.664062 C 32.289062 -20.875 32.460938 -21.886719 32.460938 -22.695312 C 32.460938 -23.488281 32.34375 -24.105469 32.109375 -24.546875 C 31.914062 -24.914062 31.570312 -25.246094 31.082031 -25.550781 C 29.171875 -26.726562 26.378906 -27.3125 22.695312 -27.3125 Z M 19.136719 -8.050781 C 19.488281 -8.050781 19.851562 -8.136719 20.222656 -8.3125 C 20.605469 -8.492188 20.910156 -8.726562 21.144531 -9.011719 C 21.207031 -9.089844 21.265625 -9.203125 21.320312 -9.351562 C 21.40625 -9.578125 21.449219 -9.808594 21.449219 -10.042969 C 21.449219 -10.769531 21.1875 -11.484375 20.664062 -12.183594 C 20.1875 -12.816406 19.582031 -13.304688 18.851562 -13.644531 C 18.234375 -13.929688 17.609375 -14.074219 16.972656 -14.074219 C 16.5 -14.074219 16.058594 -14 15.65625 -13.851562 C 15.476562 -13.785156 15.339844 -13.71875 15.242188 -13.65625 C 14.945312 -13.453125 14.695312 -13.210938 14.496094 -12.929688 C 14.367188 -12.75 14.273438 -12.582031 14.222656 -12.425781 L 15.597656 -16.296875 L 21.550781 -14.175781 L 20.453125 -7.953125 C 20.097656 -8.019531 19.65625 -8.050781 19.136719 -8.050781 Z M 19.136719 -20.6875 C 20.394531 -20.6875 21.566406 -20.589844 22.648438 -20.398438 L 30.011719 -19.101562 L 26.210938 -8.429688 C 25.460938 -6.183594 24.167969 -4.4375 22.328125 -3.191406 C 20.601562 -2.023438 18.816406 -1.4375 16.972656 -1.4375 C 15.746094 -1.4375 14.59375 -1.6875 13.523438 -2.1875 C 12.335938 -2.738281 11.347656 -3.542969 10.554688 -4.601562 C 9.394531 -6.148438 8.8125 -7.960938 8.8125 -10.042969 C 8.8125 -12.601562 9.65625 -14.917969 11.34375 -16.988281 C 12.316406 -18.1875 13.476562 -19.101562 14.824219 -19.738281 C 16.160156 -20.371094 17.597656 -20.6875 19.136719 -20.6875 Z M 19.136719 -20.6875 "/></g></g></g><g fill="#355d33" fill-opacity="1"><g transform="translate(50.173993, 66.121139)"><g><path d="M 28.417969 -39.121094 C 30.644531 -39.121094 32.546875 -38.523438 34.121094 -37.320312 C 35.15625 -36.535156 35.945312 -35.566406 36.496094 -34.414062 C 37.019531 -33.320312 37.277344 -32.148438 37.277344 -30.898438 C 37.277344 -30.3125 37.195312 -29.601562 37.027344 -28.769531 L 36.972656 -28.488281 L 36.894531 -28.21875 C 36.214844 -25.921875 34.984375 -24.121094 33.203125 -22.8125 C 31.457031 -21.53125 29.394531 -20.890625 27.019531 -20.890625 L 23.332031 -20.890625 L 23.332031 -27.210938 L 29.378906 -25.375 L 24.585938 -9.589844 L 24.558594 -9.507812 C 24.5625 -9.523438 24.5625 -9.53125 24.5625 -9.535156 C 24.5625 -9.964844 24.464844 -10.425781 24.269531 -10.914062 C 23.910156 -11.816406 23.320312 -12.550781 22.503906 -13.121094 C 22.078125 -13.421875 21.636719 -13.628906 21.175781 -13.742188 C 20.96875 -13.792969 20.796875 -13.820312 20.660156 -13.820312 C 20.992188 -13.820312 21.492188 -13.875 22.164062 -13.988281 L 23.203125 -7.757812 L 21.671875 -13.886719 C 22.683594 -14.136719 23.640625 -14.265625 24.539062 -14.265625 C 25.550781 -14.265625 26.511719 -14.070312 27.417969 -13.683594 C 28.527344 -13.207031 29.453125 -12.492188 30.195312 -11.539062 C 31.230469 -10.207031 31.75 -8.671875 31.75 -6.929688 L 25.429688 -6.929688 L 31.738281 -7.246094 C 31.878906 -4.445312 30.589844 -1.773438 27.867188 0.769531 C 25.988281 2.523438 23.574219 3.984375 20.625 5.148438 C 17.679688 6.308594 14.46875 6.890625 11 6.890625 C 6.703125 6.890625 3.125 5.808594 0.257812 3.640625 C -1.421875 2.371094 -2.699219 0.828125 -3.578125 -0.988281 C -4.429688 -2.757812 -4.855469 -4.695312 -4.855469 -6.800781 C -4.855469 -8.574219 -4.570312 -10.28125 -3.996094 -11.929688 L 1.972656 -9.855469 L -4.042969 -11.796875 L 0.0273438 -24.386719 L 6.039062 -22.441406 L -0.0234375 -24.226562 C 0.0234375 -24.375 0.0507812 -24.488281 0.0664062 -24.5625 C 0.046875 -24.46875 0.0390625 -24.332031 0.0390625 -24.160156 C 0.0390625 -23.710938 0.203125 -23.25 0.523438 -22.773438 C 0.421875 -22.925781 0.210938 -23.140625 -0.113281 -23.425781 L -0.179688 -23.484375 L -0.242188 -23.542969 C -1.273438 -24.507812 -2.0625 -25.421875 -2.609375 -26.285156 C -3.226562 -27.265625 -3.613281 -28.332031 -3.765625 -29.480469 C -3.902344 -30.480469 -3.847656 -31.488281 -3.613281 -32.507812 L -3.5625 -32.730469 L -3.496094 -32.945312 C -3.15625 -34.050781 -2.617188 -35.039062 -1.875 -35.910156 C -1.179688 -36.726562 -0.347656 -37.398438 0.628906 -37.921875 C 2.113281 -38.722656 3.980469 -39.121094 6.230469 -39.121094 L 9.789062 -39.121094 L 9.789062 -32.804688 L 5.324219 -37.273438 L 9.328125 -41.277344 C 11.242188 -43.191406 13.113281 -44.582031 14.941406 -45.445312 C 16.960938 -46.402344 19.378906 -46.878906 22.1875 -46.878906 C 24.945312 -46.878906 27.222656 -46.195312 29.019531 -44.824219 C 30.222656 -43.90625 31.125 -42.757812 31.730469 -41.375 C 32.25 -40.1875 32.511719 -38.898438 32.511719 -37.507812 C 32.511719 -36.238281 32.332031 -35.027344 31.976562 -33.871094 L 31.09375 -30.964844 L 25.046875 -32.804688 L 25.046875 -39.121094 Z M 28.417969 -26.484375 L 16.519531 -26.484375 L 19.898438 -37.585938 C 19.886719 -37.546875 19.878906 -37.511719 19.875 -37.480469 C 19.875 -37.480469 19.875 -37.492188 19.875 -37.507812 C 19.875 -37.136719 19.96875 -36.738281 20.152344 -36.3125 C 20.425781 -35.691406 20.828125 -35.179688 21.363281 -34.773438 C 21.710938 -34.503906 22.050781 -34.332031 22.382812 -34.246094 C 22.410156 -34.238281 22.433594 -34.234375 22.453125 -34.230469 L 22.441406 -34.230469 C 22.378906 -34.238281 22.292969 -34.242188 22.1875 -34.242188 C 21.636719 -34.242188 21.167969 -34.207031 20.78125 -34.136719 C 20.570312 -34.097656 20.421875 -34.058594 20.34375 -34.023438 C 19.835938 -33.785156 19.144531 -33.222656 18.261719 -32.34375 L 12.40625 -26.484375 L 6.230469 -26.484375 C 5.992188 -26.484375 5.835938 -26.480469 5.753906 -26.464844 C 5.996094 -26.507812 6.285156 -26.617188 6.621094 -26.796875 C 7.042969 -27.023438 7.421875 -27.335938 7.753906 -27.726562 C 8.136719 -28.175781 8.410156 -28.675781 8.582031 -29.230469 L 2.542969 -31.089844 L 8.699219 -29.667969 C 8.808594 -30.136719 8.828125 -30.632812 8.757812 -31.152344 C 8.667969 -31.828125 8.441406 -32.453125 8.074219 -33.03125 C 8.03125 -33.101562 7.988281 -33.164062 7.949219 -33.210938 C 7.945312 -33.21875 7.945312 -33.222656 7.941406 -33.222656 C 7.949219 -33.214844 7.957031 -33.203125 7.96875 -33.191406 C 8.066406 -33.085938 8.203125 -32.949219 8.378906 -32.78125 L 4.070312 -28.164062 L 8.25 -32.902344 C 9.367188 -31.914062 10.28125 -30.902344 10.980469 -29.867188 C 12.109375 -28.203125 12.675781 -26.300781 12.675781 -24.160156 C 12.675781 -23.128906 12.484375 -21.960938 12.101562 -20.660156 L 12.078125 -20.578125 L 7.960938 -7.84375 L 7.9375 -7.777344 C 7.832031 -7.476562 7.78125 -7.152344 7.78125 -6.800781 C 7.78125 -6.671875 7.789062 -6.570312 7.804688 -6.492188 L 7.804688 -6.480469 C 7.792969 -6.5 7.785156 -6.519531 7.773438 -6.53125 C 7.792969 -6.507812 7.828125 -6.476562 7.878906 -6.4375 C 8.488281 -5.976562 9.53125 -5.746094 11 -5.746094 C 12.867188 -5.746094 14.53125 -6.035156 15.992188 -6.609375 C 17.449219 -7.183594 18.535156 -7.800781 19.242188 -8.460938 C 19.394531 -8.605469 19.515625 -8.730469 19.601562 -8.832031 C 19.621094 -8.855469 19.636719 -8.871094 19.644531 -8.882812 C 19.632812 -8.863281 19.613281 -8.839844 19.59375 -8.804688 C 19.480469 -8.621094 19.382812 -8.394531 19.300781 -8.136719 C 19.152344 -7.65625 19.09375 -7.148438 19.121094 -6.613281 L 19.113281 -6.773438 L 19.113281 -6.929688 C 19.113281 -5.78125 19.480469 -4.730469 20.21875 -3.78125 C 20.8125 -3.019531 21.554688 -2.449219 22.441406 -2.066406 C 23.125 -1.773438 23.824219 -1.628906 24.539062 -1.628906 C 24.648438 -1.628906 24.738281 -1.632812 24.8125 -1.644531 C 24.792969 -1.640625 24.765625 -1.632812 24.738281 -1.625 L 24.492188 -1.566406 L 24.242188 -1.523438 C 22.882812 -1.296875 21.6875 -1.183594 20.660156 -1.183594 C 18.570312 -1.183594 16.769531 -1.710938 15.257812 -2.769531 C 14.015625 -3.640625 13.109375 -4.789062 12.539062 -6.21875 C 12.132812 -7.238281 11.925781 -8.34375 11.925781 -9.535156 C 11.925781 -10.898438 12.140625 -12.222656 12.570312 -13.503906 L 18.5625 -11.507812 L 12.519531 -13.34375 L 18.648438 -33.527344 L 27.019531 -33.527344 C 26.925781 -33.527344 26.800781 -33.503906 26.640625 -33.460938 C 26.324219 -33.371094 26.019531 -33.21875 25.730469 -33.003906 C 25.429688 -32.785156 25.183594 -32.527344 24.992188 -32.230469 C 24.882812 -32.066406 24.8125 -31.921875 24.773438 -31.796875 L 30.832031 -30.007812 L 24.636719 -31.246094 C 24.65625 -31.34375 24.667969 -31.410156 24.675781 -31.441406 C 24.652344 -31.292969 24.640625 -31.113281 24.640625 -30.898438 C 24.640625 -30.242188 24.792969 -29.597656 25.089844 -28.96875 C 25.417969 -28.285156 25.875 -27.71875 26.464844 -27.269531 C 26.898438 -26.941406 27.355469 -26.710938 27.835938 -26.578125 C 28.066406 -26.515625 28.257812 -26.484375 28.417969 -26.484375 Z M 28.417969 -26.484375 "/></g></g></g><g fill="#355d33" fill-opacity="1"><g transform="translate(77.510007, 66.121139)"><g><path d="M 21.550781 -40.265625 C 28.277344 -40.265625 33.398438 -39.019531 36.910156 -36.523438 C 38.902344 -35.109375 40.433594 -33.429688 41.5 -31.488281 C 42.628906 -29.445312 43.191406 -27.210938 43.191406 -24.792969 C 43.191406 -23.46875 43.042969 -22.21875 42.75 -21.035156 C 42.214844 -18.675781 41.148438 -16.59375 39.550781 -14.785156 C 38.023438 -13.058594 36.085938 -11.703125 33.738281 -10.726562 C 30.058594 -9.195312 25.824219 -8.429688 21.042969 -8.429688 C 18.746094 -8.429688 16.574219 -8.582031 14.535156 -8.878906 L 15.449219 -15.128906 L 21.765625 -15.007812 C 21.761719 -14.808594 21.769531 -14.644531 21.789062 -14.519531 C 21.789062 -14.5 21.792969 -14.488281 21.792969 -14.484375 C 21.785156 -14.507812 21.777344 -14.542969 21.761719 -14.582031 C 21.609375 -14.976562 21.332031 -15.316406 20.933594 -15.605469 C 20.898438 -15.632812 20.871094 -15.652344 20.851562 -15.660156 C 20.886719 -15.644531 20.945312 -15.625 21.023438 -15.605469 C 21.363281 -15.515625 21.8125 -15.472656 22.378906 -15.472656 C 22.875 -15.472656 23.339844 -15.527344 23.769531 -15.632812 C 24.5625 -15.832031 25.613281 -16.144531 26.917969 -16.566406 L 28.863281 -10.554688 L 26.738281 -16.503906 C 28.613281 -17.171875 30.125 -17.507812 31.277344 -17.507812 C 32.195312 -17.507812 33.070312 -17.34375 33.902344 -17.015625 C 34.972656 -16.59375 35.882812 -15.941406 36.625 -15.0625 C 37.738281 -13.75 38.296875 -12.179688 38.296875 -10.363281 L 31.976562 -10.363281 L 38.292969 -10.542969 C 38.375 -7.664062 37.445312 -4.835938 35.496094 -2.0625 C 33.75 0.429688 31.289062 2.484375 28.105469 4.105469 C 24.960938 5.707031 21.292969 6.507812 17.101562 6.507812 C 10.9375 6.507812 5.773438 4.871094 1.617188 1.589844 C -0.71875 -0.25 -2.472656 -2.519531 -3.648438 -5.21875 C -4.75 -7.75 -5.300781 -10.585938 -5.300781 -13.730469 C -5.300781 -15.421875 -5.089844 -17.316406 -4.667969 -19.421875 C -3.285156 -26.234375 -0.152344 -31.445312 4.730469 -35.054688 C 9.425781 -38.53125 15.035156 -40.265625 21.550781 -40.265625 Z M 21.550781 -27.628906 C 17.8125 -27.628906 14.710938 -26.71875 12.246094 -24.894531 C 9.964844 -23.207031 8.457031 -20.558594 7.722656 -16.941406 C 7.464844 -15.65625 7.335938 -14.585938 7.335938 -13.730469 C 7.335938 -12.34375 7.535156 -11.1875 7.9375 -10.261719 C 8.269531 -9.507812 8.769531 -8.863281 9.445312 -8.332031 C 11.304688 -6.863281 13.859375 -6.128906 17.101562 -6.128906 C 19.269531 -6.128906 21.027344 -6.46875 22.371094 -7.15625 C 23.683594 -7.824219 24.609375 -8.542969 25.152344 -9.316406 C 25.394531 -9.664062 25.554688 -9.953125 25.640625 -10.1875 C 25.65625 -10.230469 25.664062 -10.261719 25.667969 -10.277344 C 25.664062 -10.253906 25.660156 -10.222656 25.664062 -10.183594 L 25.660156 -10.273438 L 25.660156 -10.363281 C 25.660156 -9.917969 25.722656 -9.464844 25.851562 -9.007812 C 26.070312 -8.234375 26.449219 -7.53125 26.980469 -6.902344 C 27.605469 -6.160156 28.371094 -5.613281 29.269531 -5.257812 C 29.925781 -5 30.59375 -4.871094 31.277344 -4.871094 C 31.53125 -4.871094 31.761719 -4.886719 31.960938 -4.921875 L 31.964844 -4.921875 C 31.738281 -4.859375 31.410156 -4.753906 30.988281 -4.601562 L 30.898438 -4.570312 L 30.808594 -4.542969 C 29.230469 -4.03125 27.90625 -3.640625 26.835938 -3.375 C 25.398438 -3.015625 23.914062 -2.835938 22.378906 -2.835938 C 18.808594 -2.835938 15.859375 -3.683594 13.523438 -5.371094 C 11.894531 -6.550781 10.707031 -8.113281 9.960938 -10.054688 C 9.371094 -11.597656 9.09375 -13.328125 9.132812 -15.253906 L 9.269531 -22.421875 L 16.363281 -21.382812 C 17.796875 -21.171875 19.359375 -21.066406 21.042969 -21.066406 C 24.144531 -21.066406 26.757812 -21.511719 28.882812 -22.394531 C 29.4375 -22.625 29.839844 -22.878906 30.082031 -23.152344 C 30.253906 -23.347656 30.390625 -23.664062 30.488281 -24.101562 C 30.53125 -24.277344 30.554688 -24.507812 30.554688 -24.792969 C 30.554688 -25.046875 30.515625 -25.246094 30.433594 -25.394531 C 30.292969 -25.648438 30.011719 -25.921875 29.589844 -26.222656 C 29.078125 -26.585938 28.269531 -26.890625 27.15625 -27.132812 C 25.652344 -27.464844 23.785156 -27.628906 21.550781 -27.628906 Z M 17.425781 -25.074219 C 17.09375 -25.160156 16.816406 -25.199219 16.59375 -25.199219 C 16.300781 -25.199219 15.988281 -25.097656 15.65625 -24.898438 C 15.492188 -24.796875 15.355469 -24.683594 15.238281 -24.5625 C 15.207031 -24.527344 15.179688 -24.496094 15.160156 -24.464844 C 15.523438 -25.113281 15.699219 -25.878906 15.679688 -26.761719 C 15.683594 -26.625 15.703125 -26.488281 15.730469 -26.347656 C 15.820312 -25.929688 15.984375 -25.511719 16.226562 -25.09375 C 16.679688 -24.296875 17.308594 -23.65625 18.117188 -23.164062 C 19.003906 -22.625 19.957031 -22.355469 20.980469 -22.355469 C 22.03125 -22.355469 22.953125 -22.621094 23.746094 -23.152344 C 23.886719 -23.25 24.007812 -23.34375 24.109375 -23.4375 C 24.125 -23.453125 24.140625 -23.464844 24.148438 -23.476562 C 24.144531 -23.46875 24.136719 -23.460938 24.125 -23.449219 C 23.925781 -23.214844 23.644531 -22.667969 23.289062 -21.804688 C 22.824219 -20.6875 22.421875 -19.304688 22.078125 -17.65625 L 15.894531 -18.945312 Z M 14.359375 -12.816406 L 8.46875 -14.289062 L 9.707031 -20.234375 C 10.210938 -22.65625 10.847656 -24.792969 11.613281 -26.640625 C 12.484375 -28.742188 13.457031 -30.421875 14.53125 -31.671875 C 16.425781 -33.882812 18.574219 -34.992188 20.980469 -34.992188 C 22.320312 -34.992188 23.554688 -34.644531 24.6875 -33.957031 C 25.734375 -33.320312 26.574219 -32.453125 27.195312 -31.363281 C 27.882812 -30.164062 28.253906 -28.71875 28.3125 -27.023438 C 28.378906 -23.835938 27.664062 -20.914062 26.164062 -18.257812 C 25.160156 -16.472656 23.847656 -15.089844 22.234375 -14.105469 C 20.546875 -13.078125 18.664062 -12.5625 16.59375 -12.5625 C 15.777344 -12.5625 15.035156 -12.648438 14.359375 -12.816406 Z M 14.359375 -12.816406 "/></g></g></g><g fill="#355d33" fill-opacity="1"><g transform="translate(113.110387, 66.121139)"><g/></g></g><g fill="#355d33" fill-opacity="1"><g transform="translate(125.824812, 66.121139)"><g><path d="M 28.417969 -39.121094 C 30.644531 -39.121094 32.546875 -38.523438 34.121094 -37.320312 C 35.15625 -36.535156 35.945312 -35.566406 36.496094 -34.414062 C 37.019531 -33.320312 37.277344 -32.148438 37.277344 -30.898438 C 37.277344 -30.3125 37.195312 -29.601562 37.027344 -28.769531 L 36.972656 -28.488281 L 36.894531 -28.21875 C 36.214844 -25.921875 34.984375 -24.121094 33.203125 -22.8125 C 31.457031 -21.53125 29.394531 -20.890625 27.019531 -20.890625 L 23.332031 -20.890625 L 23.332031 -27.210938 L 29.378906 -25.375 L 24.585938 -9.589844 L 24.558594 -9.507812 C 24.5625 -9.523438 24.5625 -9.53125 24.5625 -9.535156 C 24.5625 -9.964844 24.464844 -10.425781 24.269531 -10.914062 C 23.910156 -11.816406 23.320312 -12.550781 22.503906 -13.121094 C 22.078125 -13.421875 21.636719 -13.628906 21.175781 -13.742188 C 20.96875 -13.792969 20.796875 -13.820312 20.660156 -13.820312 C 20.992188 -13.820312 21.492188 -13.875 22.164062 -13.988281 L 23.203125 -7.757812 L 21.671875 -13.886719 C 22.683594 -14.136719 23.640625 -14.265625 24.539062 -14.265625 C 25.550781 -14.265625 26.511719 -14.070312 27.417969 -13.683594 C 28.527344 -13.207031 29.453125 -12.492188 30.195312 -11.539062 C 31.230469 -10.207031 31.75 -8.671875 31.75 -6.929688 L 25.429688 -6.929688 L 31.738281 -7.246094 C 31.878906 -4.445312 30.589844 -1.773438 27.867188 0.769531 C 25.988281 2.523438 23.574219 3.984375 20.625 5.148438 C 17.679688 6.308594 14.46875 6.890625 11 6.890625 C 6.703125 6.890625 3.125 5.808594 0.257812 3.640625 C -1.421875 2.371094 -2.699219 0.828125 -3.578125 -0.988281 C -4.429688 -2.757812 -4.855469 -4.695312 -4.855469 -6.800781 C -4.855469 -8.574219 -4.570312 -10.28125 -3.996094 -11.929688 L 1.972656 -9.855469 L -4.042969 -11.796875 L 0.0273438 -24.386719 L 6.039062 -22.441406 L -0.0234375 -24.226562 C 0.0234375 -24.375 0.0507812 -24.488281 0.0664062 -24.5625 C 0.046875 -24.46875 0.0390625 -24.332031 0.0390625 -24.160156 C 0.0390625 -23.710938 0.203125 -23.25 0.523438 -22.773438 C 0.421875 -22.925781 0.210938 -23.140625 -0.113281 -23.425781 L -0.179688 -23.484375 L -0.242188 -23.542969 C -1.273438 -24.507812 -2.0625 -25.421875 -2.609375 -26.285156 C -3.226562 -27.265625 -3.613281 -28.332031 -3.765625 -29.480469 C -3.902344 -30.480469 -3.847656 -31.488281 -3.613281 -32.507812 L -3.5625 -32.730469 L -3.496094 -32.945312 C -3.15625 -34.050781 -2.617188 -35.039062 -1.875 -35.910156 C -1.179688 -36.726562 -0.347656 -37.398438 0.628906 -37.921875 C 2.113281 -38.722656 3.980469 -39.121094 6.230469 -39.121094 L 9.789062 -39.121094 L 9.789062 -32.804688 L 5.324219 -37.273438 L 9.328125 -41.277344 C 11.242188 -43.191406 13.113281 -44.582031 14.941406 -45.445312 C 16.960938 -46.402344 19.378906 -46.878906 22.1875 -46.878906 C 24.945312 -46.878906 27.222656 -46.195312 29.019531 -44.824219 C 30.222656 -43.90625 31.125 -42.757812 31.730469 -41.375 C 32.25 -40.1875 32.511719 -38.898438 32.511719 -37.507812 C 32.511719 -36.238281 32.332031 -35.027344 31.976562 -33.871094 L 31.09375 -30.964844 L 25.046875 -32.804688 L 25.046875 -39.121094 Z M 28.417969 -26.484375 L 16.519531 -26.484375 L 19.898438 -37.585938 C 19.886719 -37.546875 19.878906 -37.511719 19.875 -37.480469 C 19.875 -37.480469 19.875 -37.492188 19.875 -37.507812 C 19.875 -37.136719 19.96875 -36.738281 20.152344 -36.3125 C 20.425781 -35.691406 20.828125 -35.179688 21.363281 -34.773438 C 21.710938 -34.503906 22.050781 -34.332031 22.382812 -34.246094 C 22.410156 -34.238281 22.433594 -34.234375 22.453125 -34.230469 L 22.441406 -34.230469 C 22.378906 -34.238281 22.292969 -34.242188 22.1875 -34.242188 C 21.636719 -34.242188 21.167969 -34.207031 20.78125 -34.136719 C 20.570312 -34.097656 20.421875 -34.058594 20.34375 -34.023438 C 19.835938 -33.785156 19.144531 -33.222656 18.261719 -32.34375 L 12.40625 -26.484375 L 6.230469 -26.484375 C 5.992188 -26.484375 5.835938 -26.480469 5.753906 -26.464844 C 5.996094 -26.507812 6.285156 -26.617188 6.621094 -26.796875 C 7.042969 -27.023438 7.421875 -27.335938 7.753906 -27.726562 C 8.136719 -28.175781 8.410156 -28.675781 8.582031 -29.230469 L 2.542969 -31.089844 L 8.699219 -29.667969 C 8.808594 -30.136719 8.828125 -30.632812 8.757812 -31.152344 C 8.667969 -31.828125 8.441406 -32.453125 8.074219 -33.03125 C 8.03125 -33.101562 7.988281 -33.164062 7.949219 -33.210938 C 7.945312 -33.21875 7.945312 -33.222656 7.941406 -33.222656 C 7.949219 -33.214844 7.957031 -33.203125 7.96875 -33.191406 C 8.066406 -33.085938 8.203125 -32.949219 8.378906 -32.78125 L 4.070312 -28.164062 L 8.25 -32.902344 C 9.367188 -31.914062 10.28125 -30.902344 10.980469 -29.867188 C 12.109375 -28.203125 12.675781 -26.300781 12.675781 -24.160156 C 12.675781 -23.128906 12.484375 -21.960938 12.101562 -20.660156 L 12.078125 -20.578125 L 7.960938 -7.84375 L 7.9375 -7.777344 C 7.832031 -7.476562 7.78125 -7.152344 7.78125 -6.800781 C 7.78125 -6.671875 7.789062 -6.570312 7.804688 -6.492188 L 7.804688 -6.480469 C 7.792969 -6.5 7.785156 -6.519531 7.773438 -6.53125 C 7.792969 -6.507812 7.828125 -6.476562 7.878906 -6.4375 C 8.488281 -5.976562 9.53125 -5.746094 11 -5.746094 C 12.867188 -5.746094 14.53125 -6.035156 15.992188 -6.609375 C 17.449219 -7.183594 18.535156 -7.800781 19.242188 -8.460938 C 19.394531 -8.605469 19.515625 -8.730469 19.601562 -8.832031 C 19.621094 -8.855469 19.636719 -8.871094 19.644531 -8.882812 C 19.632812 -8.863281 19.613281 -8.839844 19.59375 -8.804688 C 19.480469 -8.621094 19.382812 -8.394531 19.300781 -8.136719 C 19.152344 -7.65625 19.09375 -7.148438 19.121094 -6.613281 L 19.113281 -6.773438 L 19.113281 -6.929688 C 19.113281 -5.78125 19.480469 -4.730469 20.21875 -3.78125 C 20.8125 -3.019531 21.554688 -2.449219 22.441406 -2.066406 C 23.125 -1.773438 23.824219 -1.628906 24.539062 -1.628906 C 24.648438 -1.628906 24.738281 -1.632812 24.8125 -1.644531 C 24.792969 -1.640625 24.765625 -1.632812 24.738281 -1.625 L 24.492188 -1.566406 L 24.242188 -1.523438 C 22.882812 -1.296875 21.6875 -1.183594 20.660156 -1.183594 C 18.570312 -1.183594 16.769531 -1.710938 15.257812 -2.769531 C 14.015625 -3.640625 13.109375 -4.789062 12.539062 -6.21875 C 12.132812 -7.238281 11.925781 -8.34375 11.925781 -9.535156 C 11.925781 -10.898438 12.140625 -12.222656 12.570312 -13.503906 L 18.5625 -11.507812 L 12.519531 -13.34375 L 18.648438 -33.527344 L 27.019531 -33.527344 C 26.925781 -33.527344 26.800781 -33.503906 26.640625 -33.460938 C 26.324219 -33.371094 26.019531 -33.21875 25.730469 -33.003906 C 25.429688 -32.785156 25.183594 -32.527344 24.992188 -32.230469 C 24.882812 -32.066406 24.8125 -31.921875 24.773438 -31.796875 L 30.832031 -30.007812 L 24.636719 -31.246094 C 24.65625 -31.34375 24.667969 -31.410156 24.675781 -31.441406 C 24.652344 -31.292969 24.640625 -31.113281 24.640625 -30.898438 C 24.640625 -30.242188 24.792969 -29.597656 25.089844 -28.96875 C 25.417969 -28.285156 25.875 -27.71875 26.464844 -27.269531 C 26.898438 -26.941406 27.355469 -26.710938 27.835938 -26.578125 C 28.066406 -26.515625 28.257812 -26.484375 28.417969 -26.484375 Z M 28.417969 -26.484375 "/></g></g></g><g fill="#355d33" fill-opacity="1"><g transform="translate(153.160825, 66.121139)"><g><path d="M 44.621094 -5.949219 C 44.980469 -6.667969 45.164062 -7.355469 45.164062 -8.011719 C 45.164062 -8.515625 45.082031 -9.023438 44.921875 -9.527344 C 44.691406 -10.25 44.324219 -10.894531 43.820312 -11.472656 C 43.253906 -12.117188 42.574219 -12.609375 41.78125 -12.945312 C 41.097656 -13.230469 40.394531 -13.375 39.671875 -13.375 C 38.910156 -13.375 38.183594 -13.199219 37.496094 -12.847656 C 36.921875 -12.550781 36.445312 -12.167969 36.0625 -11.699219 C 36.441406 -12.167969 36.808594 -12.566406 37.167969 -12.890625 C 38.496094 -14.105469 40.007812 -14.710938 41.703125 -14.710938 C 43.304688 -14.710938 44.730469 -14.203125 45.976562 -13.191406 C 46.820312 -12.507812 47.476562 -11.652344 47.949219 -10.625 C 48.464844 -9.511719 48.722656 -8.300781 48.722656 -6.992188 L 42.402344 -6.992188 L 48.71875 -7.210938 C 48.8125 -4.53125 48.007812 -2.023438 46.304688 0.316406 C 44.804688 2.378906 42.734375 4.011719 40.089844 5.210938 C 37.628906 6.332031 34.796875 6.890625 31.597656 6.890625 C 27.347656 6.890625 23.824219 5.796875 21.027344 3.609375 C 19.441406 2.367188 18.222656 0.882812 17.375 -0.847656 C 16.539062 -2.550781 16.101562 -4.410156 16.0625 -6.425781 C 16.058594 -8.871094 16.585938 -11.4375 17.640625 -14.128906 L 21.117188 -23.234375 C 21.128906 -23.265625 21.136719 -23.285156 21.140625 -23.292969 C 21.128906 -23.265625 21.121094 -23.234375 21.109375 -23.191406 C 21.050781 -22.929688 21.019531 -22.640625 21.019531 -22.316406 C 21.019531 -21.75 21.132812 -21.191406 21.367188 -20.632812 C 21.648438 -19.949219 22.066406 -19.367188 22.617188 -18.878906 C 23.449219 -18.144531 24.410156 -17.777344 25.492188 -17.777344 C 26.003906 -17.777344 26.46875 -17.871094 26.890625 -18.066406 C 27.074219 -18.148438 27.199219 -18.21875 27.265625 -18.28125 C 27.347656 -18.351562 27.410156 -18.421875 27.460938 -18.484375 C 27.46875 -18.492188 27.472656 -18.5 27.472656 -18.5 C 27.464844 -18.488281 27.457031 -18.472656 27.445312 -18.453125 C 27.328125 -18.242188 27.207031 -17.933594 27.082031 -17.53125 L 14.726562 -19.390625 L 14.726562 -19.515625 L 21.042969 -19.515625 L 27.078125 -17.644531 L 23.074219 -4.738281 L 17.039062 -6.613281 L 23.167969 -5.078125 C 23.160156 -5.050781 23.15625 -5.023438 23.148438 -5.003906 C 23.160156 -5.078125 23.164062 -5.167969 23.164062 -5.277344 C 23.164062 -6 22.917969 -6.734375 22.421875 -7.476562 C 22.253906 -7.730469 22.09375 -7.914062 21.933594 -8.039062 L 22.246094 -7.796875 L 22.523438 -7.519531 C 23.113281 -6.925781 23.589844 -6.363281 23.949219 -5.824219 C 24.609375 -4.832031 24.992188 -3.738281 25.097656 -2.542969 C 25.175781 -1.644531 25.085938 -0.75 24.828125 0.144531 L 24.753906 0.417969 L 24.652344 0.679688 C 24.203125 1.839844 23.53125 2.851562 22.628906 3.707031 C 21.832031 4.464844 20.898438 5.058594 19.828125 5.484375 C 18.441406 6.039062 16.683594 6.316406 14.558594 6.316406 L 0.0625 6.316406 C -2.378906 6.316406 -4.402344 5.75 -6.003906 4.617188 C -7.347656 3.664062 -8.28125 2.441406 -8.8125 0.949219 C -9.351562 -0.5625 -9.390625 -2.113281 -8.9375 -3.707031 L -8.898438 -3.839844 L -8.855469 -3.96875 C -8.152344 -6.078125 -6.695312 -7.71875 -4.480469 -8.890625 C -4.476562 -8.890625 -4.46875 -8.898438 -4.460938 -8.902344 C -4.464844 -8.902344 -4.46875 -8.898438 -4.476562 -8.890625 C -4.519531 -8.859375 -4.5625 -8.816406 -4.613281 -8.765625 C -4.808594 -8.546875 -4.945312 -8.355469 -5.03125 -8.179688 C -5.007812 -8.230469 -4.96875 -8.339844 -4.921875 -8.507812 L 4.789062 -40.382812 L 4.8125 -40.460938 C 4.726562 -40.195312 4.679688 -39.84375 4.679688 -39.417969 C 4.679688 -38.425781 5.011719 -37.503906 5.679688 -36.65625 C 5.742188 -36.578125 5.800781 -36.511719 5.855469 -36.460938 L 5.847656 -36.464844 C 4.960938 -37.171875 4.261719 -37.867188 3.75 -38.550781 C 2.941406 -39.628906 2.472656 -40.84375 2.347656 -42.195312 C 2.253906 -43.183594 2.359375 -44.175781 2.65625 -45.171875 L 8.710938 -43.359375 L 2.597656 -44.953125 C 3.140625 -47.042969 4.449219 -48.746094 6.515625 -50.058594 C 7.675781 -50.796875 9.140625 -51.429688 10.910156 -51.957031 C 13.914062 -52.851562 17.039062 -53.300781 20.28125 -53.300781 C 24.214844 -53.300781 27.34375 -52.371094 29.664062 -50.515625 C 31.027344 -49.425781 32.0625 -48.109375 32.769531 -46.5625 C 33.445312 -45.089844 33.78125 -43.492188 33.78125 -41.769531 C 33.78125 -40.152344 33.527344 -38.574219 33.011719 -37.035156 L 27.019531 -39.035156 L 33.058594 -37.179688 L 29.625 -25.992188 L 23.585938 -27.84375 L 18.566406 -31.683594 C 20.855469 -34.675781 23.398438 -36.816406 26.191406 -38.101562 C 28.871094 -39.332031 31.753906 -39.949219 34.839844 -39.949219 C 36.898438 -39.949219 38.804688 -39.617188 40.566406 -38.957031 C 42.449219 -38.25 44.105469 -37.191406 45.539062 -35.777344 C 46.972656 -34.363281 48.050781 -32.730469 48.773438 -30.875 C 49.460938 -29.121094 49.804688 -27.21875 49.804688 -25.175781 C 49.804688 -23.179688 49.484375 -21.21875 48.84375 -19.300781 L 44.855469 -6.410156 Z M 33.320312 -11.597656 L 38.972656 -8.773438 L 32.9375 -10.640625 L 36.855469 -23.296875 C 37.0625 -23.917969 37.167969 -24.546875 37.167969 -25.175781 C 37.167969 -25.632812 37.113281 -26 37.003906 -26.277344 C 36.933594 -26.460938 36.820312 -26.628906 36.664062 -26.78125 C 36.304688 -27.136719 35.695312 -27.3125 34.839844 -27.3125 C 33.597656 -27.3125 32.476562 -27.082031 31.46875 -26.617188 C 30.578125 -26.207031 29.621094 -25.335938 28.605469 -24.007812 L 17.546875 -29.699219 L 21 -40.960938 L 21.023438 -41.03125 C 21.105469 -41.273438 21.144531 -41.519531 21.144531 -41.769531 C 21.144531 -41.65625 21.191406 -41.496094 21.285156 -41.296875 C 21.410156 -41.023438 21.570312 -40.808594 21.769531 -40.648438 C 21.867188 -40.570312 21.957031 -40.511719 22.035156 -40.476562 C 22.019531 -40.484375 21.976562 -40.496094 21.910156 -40.511719 C 21.519531 -40.613281 20.976562 -40.664062 20.28125 -40.664062 C 18.265625 -40.664062 16.347656 -40.390625 14.519531 -39.847656 C 13.875 -39.652344 13.460938 -39.5 13.289062 -39.390625 C 13.46875 -39.507812 13.664062 -39.679688 13.863281 -39.914062 C 14.316406 -40.429688 14.636719 -41.046875 14.824219 -41.761719 L 14.761719 -41.542969 C 14.933594 -42.117188 14.988281 -42.726562 14.929688 -43.375 C 14.832031 -44.390625 14.476562 -45.308594 13.859375 -46.132812 C 13.753906 -46.273438 13.65625 -46.386719 13.566406 -46.472656 C 13.578125 -46.460938 13.59375 -46.449219 13.605469 -46.4375 C 14.394531 -45.824219 15.066406 -45.167969 15.617188 -44.464844 C 16.75 -43.023438 17.316406 -41.339844 17.316406 -39.417969 C 17.316406 -38.476562 17.144531 -37.496094 16.800781 -36.464844 L 10.808594 -38.460938 L 16.851562 -36.621094 L 7.210938 -4.96875 C 6.640625 -3.019531 5.816406 -1.449219 4.738281 -0.261719 C 3.824219 0.742188 2.722656 1.589844 1.429688 2.277344 C 1.628906 2.171875 1.84375 2.007812 2.066406 1.78125 C 2.546875 1.300781 2.902344 0.714844 3.132812 0.0273438 L -2.859375 -1.972656 L 3.214844 -0.234375 C 3.5 -1.234375 3.460938 -2.253906 3.09375 -3.285156 C 2.730469 -4.300781 2.132812 -5.105469 1.300781 -5.695312 C 0.863281 -6.003906 0.433594 -6.207031 0.0117188 -6.300781 C -0.046875 -6.3125 -0.0859375 -6.320312 -0.113281 -6.324219 C -0.0742188 -6.320312 -0.0117188 -6.316406 0.0625 -6.316406 L 14.558594 -6.316406 C 14.941406 -6.316406 15.242188 -6.332031 15.457031 -6.359375 C 15.480469 -6.363281 15.5 -6.367188 15.515625 -6.367188 C 15.507812 -6.367188 15.5 -6.367188 15.488281 -6.363281 C 15.382812 -6.339844 15.265625 -6.300781 15.136719 -6.246094 C 14.703125 -6.074219 14.300781 -5.808594 13.925781 -5.453125 C 13.449219 -5 13.09375 -4.46875 12.855469 -3.859375 L 18.753906 -1.589844 L 12.679688 -3.324219 C 12.507812 -2.726562 12.449219 -2.101562 12.507812 -1.449219 C 12.589844 -0.496094 12.898438 0.382812 13.433594 1.183594 C 13.519531 1.3125 13.597656 1.417969 13.667969 1.5 C 13.660156 1.488281 13.632812 1.460938 13.585938 1.417969 L 18.054688 -3.050781 L 14.175781 1.9375 C 13.253906 1.21875 12.5 0.417969 11.90625 -0.46875 C 10.988281 -1.847656 10.527344 -3.449219 10.527344 -5.277344 C 10.527344 -6.175781 10.65625 -7.132812 10.910156 -8.144531 L 10.953125 -8.316406 L 15.007812 -21.390625 L 27.363281 -19.515625 L 27.363281 -19.390625 L 21.042969 -19.390625 L 15.003906 -21.25 C 15.855469 -24.015625 17.128906 -26.164062 18.824219 -27.683594 C 20.851562 -29.503906 23.074219 -30.414062 25.492188 -30.414062 C 27.59375 -30.414062 29.421875 -29.726562 30.976562 -28.355469 C 31.886719 -27.550781 32.574219 -26.589844 33.039062 -25.472656 C 33.449219 -24.480469 33.65625 -23.429688 33.65625 -22.316406 C 33.65625 -21.195312 33.410156 -19.996094 32.921875 -18.726562 L 29.40625 -9.523438 C 28.933594 -8.3125 28.695312 -7.363281 28.695312 -6.671875 C 28.699219 -6.566406 28.707031 -6.480469 28.71875 -6.417969 L 28.71875 -6.414062 C 28.710938 -6.429688 28.703125 -6.441406 28.699219 -6.449219 C 28.722656 -6.421875 28.757812 -6.386719 28.8125 -6.34375 C 29.324219 -5.945312 30.25 -5.746094 31.597656 -5.746094 C 32.972656 -5.746094 34.0625 -5.929688 34.863281 -6.292969 C 35.484375 -6.574219 35.890625 -6.851562 36.085938 -7.117188 C 36.121094 -7.167969 36.148438 -7.207031 36.164062 -7.238281 C 36.160156 -7.230469 36.152344 -7.210938 36.144531 -7.1875 C 36.101562 -7.0625 36.085938 -6.925781 36.089844 -6.777344 L 36.085938 -6.882812 L 36.085938 -6.992188 C 36.085938 -6.449219 36.214844 -5.894531 36.476562 -5.332031 C 36.824219 -4.582031 37.332031 -3.933594 38.007812 -3.386719 C 39.082031 -2.511719 40.316406 -2.074219 41.703125 -2.074219 C 42.839844 -2.074219 43.882812 -2.359375 44.839844 -2.933594 C 45.152344 -3.121094 45.4375 -3.332031 45.6875 -3.558594 C 45.773438 -3.640625 45.847656 -3.710938 45.90625 -3.777344 C 45.914062 -3.785156 45.917969 -3.789062 45.917969 -3.789062 C 45.910156 -3.777344 45.898438 -3.765625 45.882812 -3.75 C 45.144531 -2.832031 44.269531 -2.117188 43.257812 -1.601562 C 42.136719 -1.027344 40.941406 -0.738281 39.671875 -0.738281 C 38.691406 -0.738281 37.761719 -0.925781 36.875 -1.296875 C 35.878906 -1.714844 35.027344 -2.335938 34.3125 -3.152344 C 33.121094 -4.511719 32.527344 -6.132812 32.527344 -8.011719 C 32.527344 -9.34375 32.789062 -10.539062 33.320312 -11.597656 Z M 33.320312 -11.597656 "/></g></g></g><g fill="#355d33" fill-opacity="1"><g transform="translate(198.297023, 66.121139)"><g><path d="M 22.695312 -39.949219 C 28.761719 -39.949219 33.765625 -38.734375 37.707031 -36.308594 C 40.140625 -34.808594 41.992188 -32.871094 43.261719 -30.492188 C 44.484375 -28.191406 45.097656 -25.59375 45.097656 -22.695312 C 45.097656 -20.707031 44.761719 -18.539062 44.09375 -16.191406 L 41.46875 -7.355469 L 35.410156 -9.15625 L 41.539062 -7.621094 C 41.625 -7.957031 41.664062 -8.253906 41.664062 -8.519531 C 41.664062 -8.910156 41.609375 -9.3125 41.496094 -9.726562 C 41.296875 -10.460938 40.953125 -11.132812 40.457031 -11.742188 C 39.847656 -12.488281 39.101562 -13.046875 38.210938 -13.410156 C 37.546875 -13.683594 36.867188 -13.820312 36.175781 -13.820312 C 35.414062 -13.820312 34.6875 -13.644531 34 -13.292969 C 33.425781 -12.996094 32.945312 -12.613281 32.566406 -12.144531 C 32.945312 -12.613281 33.3125 -13.011719 33.671875 -13.335938 C 35 -14.546875 36.511719 -15.15625 38.207031 -15.15625 C 39.824219 -15.15625 41.261719 -14.636719 42.519531 -13.601562 C 43.300781 -12.960938 43.925781 -12.164062 44.398438 -11.21875 C 44.992188 -10.03125 45.289062 -8.75 45.289062 -7.375 L 38.972656 -7.375 L 45.285156 -7.609375 C 45.382812 -4.945312 44.515625 -2.421875 42.679688 -0.03125 C 41.179688 1.925781 39.230469 3.5 36.839844 4.699219 C 34.421875 5.90625 31.808594 6.507812 28.988281 6.507812 C 25.769531 6.507812 22.917969 5.875 20.445312 4.601562 C 17.4375 3.058594 15.347656 0.742188 14.179688 -2.339844 L 20.089844 -4.578125 L 24.945312 -0.53125 C 23.078125 1.703125 20.863281 3.433594 18.289062 4.65625 C 15.691406 5.890625 12.925781 6.507812 9.980469 6.507812 C 6.621094 6.507812 3.691406 5.796875 1.195312 4.378906 C -1.378906 2.910156 -3.324219 0.957031 -4.640625 -1.488281 C -5.886719 -3.800781 -6.507812 -6.25 -6.507812 -8.835938 C -6.507812 -9.933594 -6.40625 -11.003906 -6.195312 -12.046875 L -6.15625 -12.234375 C -5.640625 -14.445312 -4.804688 -16.421875 -3.640625 -18.164062 C -2.425781 -19.980469 -0.894531 -21.496094 0.960938 -22.707031 C 4.277344 -24.878906 8.132812 -25.960938 12.523438 -25.960938 C 16.710938 -25.960938 20.816406 -25.308594 24.839844 -24 L 22.886719 -17.992188 L 16.976562 -20.230469 L 18.566406 -24.425781 L 24.476562 -22.1875 L 18.441406 -24.054688 C 18.652344 -24.738281 18.804688 -25.320312 18.902344 -25.792969 C 18.957031 -26.074219 18.984375 -26.25 18.984375 -26.320312 L 25.300781 -26.320312 L 18.988281 -26.058594 C 19.003906 -25.761719 19.085938 -25.441406 19.242188 -25.089844 C 19.488281 -24.53125 19.855469 -24.0625 20.339844 -23.675781 C 20.722656 -23.367188 21.101562 -23.167969 21.484375 -23.066406 C 21.535156 -23.054688 21.566406 -23.046875 21.585938 -23.042969 C 21.53125 -23.050781 21.457031 -23.054688 21.359375 -23.054688 L 21.359375 -29.371094 L 27.277344 -31.589844 C 27.800781 -30.195312 28.0625 -28.757812 28.0625 -27.273438 C 28.0625 -25.609375 27.734375 -24.03125 27.085938 -22.546875 C 26.453125 -21.105469 25.542969 -19.808594 24.347656 -18.65625 C 21.9375 -16.332031 18.78125 -15.167969 14.875 -15.167969 C 11.347656 -15.167969 8.429688 -16.074219 6.121094 -17.878906 C 4.808594 -18.902344 3.796875 -20.109375 3.082031 -21.5 C 2.324219 -22.972656 1.945312 -24.558594 1.945312 -26.257812 C 1.945312 -28.605469 2.601562 -30.75 3.917969 -32.699219 C 5.042969 -34.367188 6.609375 -35.792969 8.617188 -36.976562 C 11.980469 -38.957031 16.671875 -39.949219 22.695312 -39.949219 Z M 22.695312 -27.3125 C 20.660156 -27.3125 18.9375 -27.175781 17.519531 -26.902344 C 16.421875 -26.691406 15.59375 -26.417969 15.03125 -26.089844 C 14.789062 -25.945312 14.601562 -25.8125 14.460938 -25.6875 C 14.425781 -25.65625 14.398438 -25.632812 14.378906 -25.609375 C 14.378906 -25.609375 14.382812 -25.617188 14.390625 -25.632812 C 14.519531 -25.820312 14.582031 -26.027344 14.582031 -26.257812 C 14.582031 -26.597656 14.496094 -26.9375 14.320312 -27.277344 C 14.191406 -27.535156 14.050781 -27.71875 13.90625 -27.832031 C 13.851562 -27.875 13.800781 -27.90625 13.753906 -27.929688 L 13.75 -27.933594 C 13.765625 -27.925781 13.785156 -27.917969 13.8125 -27.914062 C 14.0625 -27.84375 14.417969 -27.804688 14.875 -27.804688 C 15.285156 -27.804688 15.589844 -27.839844 15.78125 -27.902344 C 15.730469 -27.886719 15.664062 -27.835938 15.578125 -27.753906 C 15.589844 -27.765625 15.601562 -27.777344 15.605469 -27.785156 C 15.605469 -27.78125 15.601562 -27.773438 15.59375 -27.765625 C 15.5625 -27.722656 15.535156 -27.671875 15.507812 -27.613281 C 15.453125 -27.484375 15.425781 -27.371094 15.425781 -27.273438 C 15.425781 -27.230469 15.429688 -27.191406 15.445312 -27.152344 L 12.242188 -35.691406 L 21.359375 -35.691406 C 24.152344 -35.691406 26.441406 -34.972656 28.234375 -33.542969 C 29.351562 -32.648438 30.203125 -31.539062 30.789062 -30.222656 C 31.285156 -29.105469 31.5625 -27.894531 31.617188 -26.582031 L 31.621094 -26.453125 L 31.621094 -26.320312 C 31.621094 -24.707031 31.25 -22.707031 30.511719 -20.320312 L 30.453125 -20.132812 L 26.660156 -10.121094 L 20.933594 -11.984375 C 18.179688 -12.878906 15.375 -13.328125 12.523438 -13.328125 C 10.644531 -13.328125 9.09375 -12.929688 7.878906 -12.132812 C 7.023438 -11.574219 6.449219 -10.65625 6.15625 -9.378906 L 0 -10.808594 L 6.195312 -9.570312 C 6.148438 -9.339844 6.128906 -9.097656 6.128906 -8.835938 C 6.128906 -8.371094 6.246094 -7.917969 6.484375 -7.476562 C 6.652344 -7.164062 6.976562 -6.875 7.449219 -6.601562 C 8.007812 -6.285156 8.851562 -6.128906 9.980469 -6.128906 C 11.023438 -6.128906 11.984375 -6.335938 12.863281 -6.753906 C 13.765625 -7.183594 14.554688 -7.808594 15.234375 -8.621094 L 22.167969 -16.941406 L 26 -6.8125 C 26.007812 -6.785156 26.019531 -6.765625 26.027344 -6.753906 C 26.023438 -6.757812 26.019531 -6.761719 26.015625 -6.765625 C 26.042969 -6.734375 26.113281 -6.691406 26.21875 -6.636719 C 26.878906 -6.296875 27.804688 -6.128906 28.988281 -6.128906 C 29.816406 -6.128906 30.550781 -6.285156 31.1875 -6.605469 C 31.84375 -6.933594 32.335938 -7.308594 32.65625 -7.726562 C 32.710938 -7.796875 32.75 -7.855469 32.777344 -7.902344 L 32.78125 -7.90625 C 32.773438 -7.890625 32.765625 -7.871094 32.757812 -7.847656 C 32.679688 -7.644531 32.648438 -7.410156 32.65625 -7.140625 L 32.652344 -7.257812 L 32.652344 -7.375 C 32.652344 -6.761719 32.800781 -6.160156 33.097656 -5.566406 C 33.421875 -4.914062 33.886719 -4.34375 34.484375 -3.847656 C 35.5625 -2.960938 36.804688 -2.519531 38.207031 -2.519531 C 39.34375 -2.519531 40.386719 -2.804688 41.34375 -3.378906 C 41.65625 -3.566406 41.941406 -3.773438 42.191406 -4.003906 C 42.277344 -4.082031 42.351562 -4.15625 42.410156 -4.222656 C 42.417969 -4.230469 42.417969 -4.230469 42.421875 -4.234375 C 42.410156 -4.222656 42.402344 -4.210938 42.386719 -4.195312 C 41.648438 -3.277344 40.773438 -2.5625 39.761719 -2.046875 C 38.640625 -1.472656 37.445312 -1.183594 36.175781 -1.183594 C 35.207031 -1.183594 34.285156 -1.363281 33.414062 -1.71875 C 32.316406 -2.167969 31.394531 -2.855469 30.648438 -3.773438 C 29.570312 -5.101562 29.027344 -6.683594 29.027344 -8.519531 C 29.027344 -9.292969 29.113281 -10.015625 29.28125 -10.6875 L 29.316406 -10.820312 L 31.941406 -19.664062 C 32.289062 -20.875 32.460938 -21.886719 32.460938 -22.695312 C 32.460938 -23.488281 32.34375 -24.105469 32.109375 -24.546875 C 31.914062 -24.914062 31.570312 -25.246094 31.082031 -25.550781 C 29.171875 -26.726562 26.378906 -27.3125 22.695312 -27.3125 Z M 19.136719 -8.050781 C 19.488281 -8.050781 19.851562 -8.136719 20.222656 -8.3125 C 20.605469 -8.492188 20.910156 -8.726562 21.144531 -9.011719 C 21.207031 -9.089844 21.265625 -9.203125 21.320312 -9.351562 C 21.40625 -9.578125 21.449219 -9.808594 21.449219 -10.042969 C 21.449219 -10.769531 21.1875 -11.484375 20.664062 -12.183594 C 20.1875 -12.816406 19.582031 -13.304688 18.851562 -13.644531 C 18.234375 -13.929688 17.609375 -14.074219 16.972656 -14.074219 C 16.5 -14.074219 16.058594 -14 15.65625 -13.851562 C 15.476562 -13.785156 15.339844 -13.71875 15.242188 -13.65625 C 14.945312 -13.453125 14.695312 -13.210938 14.496094 -12.929688 C 14.367188 -12.75 14.273438 -12.582031 14.222656 -12.425781 L 15.597656 -16.296875 L 21.550781 -14.175781 L 20.453125 -7.953125 C 20.097656 -8.019531 19.65625 -8.050781 19.136719 -8.050781 Z M 19.136719 -20.6875 C 20.394531 -20.6875 21.566406 -20.589844 22.648438 -20.398438 L 30.011719 -19.101562 L 26.210938 -8.429688 C 25.460938 -6.183594 24.167969 -4.4375 22.328125 -3.191406 C 20.601562 -2.023438 18.816406 -1.4375 16.972656 -1.4375 C 15.746094 -1.4375 14.59375 -1.6875 13.523438 -2.1875 C 12.335938 -2.738281 11.347656 -3.542969 10.554688 -4.601562 C 9.394531 -6.148438 8.8125 -7.960938 8.8125 -10.042969 C 8.8125 -12.601562 9.65625 -14.917969 11.34375 -16.988281 C 12.316406 -18.1875 13.476562 -19.101562 14.824219 -19.738281 C 16.160156 -20.371094 17.597656 -20.6875 19.136719 -20.6875 Z M 19.136719 -20.6875 "/></g></g></g><g fill="#355d33" fill-opacity="1"><g transform="translate(239.873196, 66.121139)"><g><path d="M 28.417969 -39.121094 C 30.644531 -39.121094 32.546875 -38.523438 34.121094 -37.320312 C 35.15625 -36.535156 35.945312 -35.566406 36.496094 -34.414062 C 37.019531 -33.320312 37.277344 -32.148438 37.277344 -30.898438 C 37.277344 -30.3125 37.195312 -29.601562 37.027344 -28.769531 L 36.972656 -28.488281 L 36.894531 -28.21875 C 36.214844 -25.921875 34.984375 -24.121094 33.203125 -22.8125 C 31.457031 -21.53125 29.394531 -20.890625 27.019531 -20.890625 L 23.332031 -20.890625 L 23.332031 -27.210938 L 29.378906 -25.375 L 24.585938 -9.589844 L 24.558594 -9.507812 C 24.5625 -9.523438 24.5625 -9.53125 24.5625 -9.535156 C 24.5625 -9.964844 24.464844 -10.425781 24.269531 -10.914062 C 23.910156 -11.816406 23.320312 -12.550781 22.503906 -13.121094 C 22.078125 -13.421875 21.636719 -13.628906 21.175781 -13.742188 C 20.96875 -13.792969 20.796875 -13.820312 20.660156 -13.820312 C 20.992188 -13.820312 21.492188 -13.875 22.164062 -13.988281 L 23.203125 -7.757812 L 21.671875 -13.886719 C 22.683594 -14.136719 23.640625 -14.265625 24.539062 -14.265625 C 25.550781 -14.265625 26.511719 -14.070312 27.417969 -13.683594 C 28.527344 -13.207031 29.453125 -12.492188 30.195312 -11.539062 C 31.230469 -10.207031 31.75 -8.671875 31.75 -6.929688 L 25.429688 -6.929688 L 31.738281 -7.246094 C 31.878906 -4.445312 30.589844 -1.773438 27.867188 0.769531 C 25.988281 2.523438 23.574219 3.984375 20.625 5.148438 C 17.679688 6.308594 14.46875 6.890625 11 6.890625 C 6.703125 6.890625 3.125 5.808594 0.257812 3.640625 C -1.421875 2.371094 -2.699219 0.828125 -3.578125 -0.988281 C -4.429688 -2.757812 -4.855469 -4.695312 -4.855469 -6.800781 C -4.855469 -8.574219 -4.570312 -10.28125 -3.996094 -11.929688 L 1.972656 -9.855469 L -4.042969 -11.796875 L 0.0273438 -24.386719 L 6.039062 -22.441406 L -0.0234375 -24.226562 C 0.0234375 -24.375 0.0507812 -24.488281 0.0664062 -24.5625 C 0.046875 -24.46875 0.0390625 -24.332031 0.0390625 -24.160156 C 0.0390625 -23.710938 0.203125 -23.25 0.523438 -22.773438 C 0.421875 -22.925781 0.210938 -23.140625 -0.113281 -23.425781 L -0.179688 -23.484375 L -0.242188 -23.542969 C -1.273438 -24.507812 -2.0625 -25.421875 -2.609375 -26.285156 C -3.226562 -27.265625 -3.613281 -28.332031 -3.765625 -29.480469 C -3.902344 -30.480469 -3.847656 -31.488281 -3.613281 -32.507812 L -3.5625 -32.730469 L -3.496094 -32.945312 C -3.15625 -34.050781 -2.617188 -35.039062 -1.875 -35.910156 C -1.179688 -36.726562 -0.347656 -37.398438 0.628906 -37.921875 C 2.113281 -38.722656 3.980469 -39.121094 6.230469 -39.121094 L 9.789062 -39.121094 L 9.789062 -32.804688 L 5.324219 -37.273438 L 9.328125 -41.277344 C 11.242188 -43.191406 13.113281 -44.582031 14.941406 -45.445312 C 16.960938 -46.402344 19.378906 -46.878906 22.1875 -46.878906 C 24.945312 -46.878906 27.222656 -46.195312 29.019531 -44.824219 C 30.222656 -43.90625 31.125 -42.757812 31.730469 -41.375 C 32.25 -40.1875 32.511719 -38.898438 32.511719 -37.507812 C 32.511719 -36.238281 32.332031 -35.027344 31.976562 -33.871094 L 31.09375 -30.964844 L 25.046875 -32.804688 L 25.046875 -39.121094 Z M 28.417969 -26.484375 L 16.519531 -26.484375 L 19.898438 -37.585938 C 19.886719 -37.546875 19.878906 -37.511719 19.875 -37.480469 C 19.875 -37.480469 19.875 -37.492188 19.875 -37.507812 C 19.875 -37.136719 19.96875 -36.738281 20.152344 -36.3125 C 20.425781 -35.691406 20.828125 -35.179688 21.363281 -34.773438 C 21.710938 -34.503906 22.050781 -34.332031 22.382812 -34.246094 C 22.410156 -34.238281 22.433594 -34.234375 22.453125 -34.230469 L 22.441406 -34.230469 C 22.378906 -34.238281 22.292969 -34.242188 22.1875 -34.242188 C 21.636719 -34.242188 21.167969 -34.207031 20.78125 -34.136719 C 20.570312 -34.097656 20.421875 -34.058594 20.34375 -34.023438 C 19.835938 -33.785156 19.144531 -33.222656 18.261719 -32.34375 L 12.40625 -26.484375 L 6.230469 -26.484375 C 5.992188 -26.484375 5.835938 -26.480469 5.753906 -26.464844 C 5.996094 -26.507812 6.285156 -26.617188 6.621094 -26.796875 C 7.042969 -27.023438 7.421875 -27.335938 7.753906 -27.726562 C 8.136719 -28.175781 8.410156 -28.675781 8.582031 -29.230469 L 2.542969 -31.089844 L 8.699219 -29.667969 C 8.808594 -30.136719 8.828125 -30.632812 8.757812 -31.152344 C 8.667969 -31.828125 8.441406 -32.453125 8.074219 -33.03125 C 8.03125 -33.101562 7.988281 -33.164062 7.949219 -33.210938 C 7.945312 -33.21875 7.945312 -33.222656 7.941406 -33.222656 C 7.949219 -33.214844 7.957031 -33.203125 7.96875 -33.191406 C 8.066406 -33.085938 8.203125 -32.949219 8.378906 -32.78125 L 4.070312 -28.164062 L 8.25 -32.902344 C 9.367188 -31.914062 10.28125 -30.902344 10.980469 -29.867188 C 12.109375 -28.203125 12.675781 -26.300781 12.675781 -24.160156 C 12.675781 -23.128906 12.484375 -21.960938 12.101562 -20.660156 L 12.078125 -20.578125 L 7.960938 -7.84375 L 7.9375 -7.777344 C 7.832031 -7.476562 7.78125 -7.152344 7.78125 -6.800781 C 7.78125 -6.671875 7.789062 -6.570312 7.804688 -6.492188 L 7.804688 -6.480469 C 7.792969 -6.5 7.785156 -6.519531 7.773438 -6.53125 C 7.792969 -6.507812 7.828125 -6.476562 7.878906 -6.4375 C 8.488281 -5.976562 9.53125 -5.746094 11 -5.746094 C 12.867188 -5.746094 14.53125 -6.035156 15.992188 -6.609375 C 17.449219 -7.183594 18.535156 -7.800781 19.242188 -8.460938 C 19.394531 -8.605469 19.515625 -8.730469 19.601562 -8.832031 C 19.621094 -8.855469 19.636719 -8.871094 19.644531 -8.882812 C 19.632812 -8.863281 19.613281 -8.839844 19.59375 -8.804688 C 19.480469 -8.621094 19.382812 -8.394531 19.300781 -8.136719 C 19.152344 -7.65625 19.09375 -7.148438 19.121094 -6.613281 L 19.113281 -6.773438 L 19.113281 -6.929688 C 19.113281 -5.78125 19.480469 -4.730469 20.21875 -3.78125 C 20.8125 -3.019531 21.554688 -2.449219 22.441406 -2.066406 C 23.125 -1.773438 23.824219 -1.628906 24.539062 -1.628906 C 24.648438 -1.628906 24.738281 -1.632812 24.8125 -1.644531 C 24.792969 -1.640625 24.765625 -1.632812 24.738281 -1.625 L 24.492188 -1.566406 L 24.242188 -1.523438 C 22.882812 -1.296875 21.6875 -1.183594 20.660156 -1.183594 C 18.570312 -1.183594 16.769531 -1.710938 15.257812 -2.769531 C 14.015625 -3.640625 13.109375 -4.789062 12.539062 -6.21875 C 12.132812 -7.238281 11.925781 -8.34375 11.925781 -9.535156 C 11.925781 -10.898438 12.140625 -12.222656 12.570312 -13.503906 L 18.5625 -11.507812 L 12.519531 -13.34375 L 18.648438 -33.527344 L 27.019531 -33.527344 C 26.925781 -33.527344 26.800781 -33.503906 26.640625 -33.460938 C 26.324219 -33.371094 26.019531 -33.21875 25.730469 -33.003906 C 25.429688 -32.785156 25.183594 -32.527344 24.992188 -32.230469 C 24.882812 -32.066406 24.8125 -31.921875 24.773438 -31.796875 L 30.832031 -30.007812 L 24.636719 -31.246094 C 24.65625 -31.34375 24.667969 -31.410156 24.675781 -31.441406 C 24.652344 -31.292969 24.640625 -31.113281 24.640625 -30.898438 C 24.640625 -30.242188 24.792969 -29.597656 25.089844 -28.96875 C 25.417969 -28.285156 25.875 -27.71875 26.464844 -27.269531 C 26.898438 -26.941406 27.355469 -26.710938 27.835938 -26.578125 C 28.066406 -26.515625 28.257812 -26.484375 28.417969 -26.484375 Z M 28.417969 -26.484375 "/></g></g></g><g fill="#355d33" fill-opacity="1"><g transform="translate(267.210016, 66.121139)"><g/></g></g><g fill="#ffffff" fill-opacity="1"><g transform="translate(8.597832, 66.121139)"><g><path d="M 22.703125 -33.640625 C 27.578125 -33.640625 31.472656 -32.738281 34.390625 -30.9375 C 37.316406 -29.132812 38.78125 -26.390625 38.78125 -22.703125 C 38.78125 -21.296875 38.523438 -19.703125 38.015625 -17.921875 L 35.40625 -9.15625 C 35.363281 -8.988281 35.34375 -8.773438 35.34375 -8.515625 C 35.34375 -7.835938 35.617188 -7.5 36.171875 -7.5 C 36.679688 -7.5 37.113281 -7.722656 37.46875 -8.171875 C 37.832031 -8.617188 38.078125 -8.84375 38.203125 -8.84375 C 38.421875 -8.84375 38.601562 -8.691406 38.75 -8.390625 C 38.894531 -8.097656 38.96875 -7.757812 38.96875 -7.375 C 39.007812 -6.226562 38.570312 -5.0625 37.65625 -3.875 C 36.75 -2.6875 35.53125 -1.710938 34 -0.953125 C 32.476562 -0.191406 30.804688 0.1875 28.984375 0.1875 C 26.785156 0.1875 24.898438 -0.210938 23.328125 -1.015625 C 21.765625 -1.816406 20.6875 -3.003906 20.09375 -4.578125 C 18.820312 -3.046875 17.316406 -1.867188 15.578125 -1.046875 C 13.835938 -0.222656 11.972656 0.1875 9.984375 0.1875 C 7.734375 0.1875 5.84375 -0.242188 4.3125 -1.109375 C 2.789062 -1.984375 1.660156 -3.109375 0.921875 -4.484375 C 0.179688 -5.859375 -0.1875 -7.3125 -0.1875 -8.84375 C -0.1875 -9.519531 -0.125 -10.175781 0 -10.8125 C 0.675781 -13.726562 2.144531 -15.925781 4.40625 -17.40625 C 6.675781 -18.894531 9.382812 -19.640625 12.53125 -19.640625 C 16.039062 -19.640625 19.492188 -19.09375 22.890625 -18 L 24.484375 -22.1875 C 25.023438 -23.96875 25.296875 -25.347656 25.296875 -26.328125 C 25.253906 -27.335938 24.914062 -28.097656 24.28125 -28.609375 C 23.644531 -29.117188 22.671875 -29.375 21.359375 -29.375 C 21.617188 -28.695312 21.75 -28 21.75 -27.28125 C 21.75 -25.707031 21.15625 -24.347656 19.96875 -23.203125 C 18.78125 -22.054688 17.082031 -21.484375 14.875 -21.484375 C 12.800781 -21.484375 11.179688 -21.9375 10.015625 -22.84375 C 8.847656 -23.757812 8.265625 -24.894531 8.265625 -26.25 C 8.265625 -28.375 9.453125 -30.132812 11.828125 -31.53125 C 14.203125 -32.9375 17.828125 -33.640625 22.703125 -33.640625 Z M 19.140625 -14.375 C 17.953125 -14.375 16.984375 -13.914062 16.234375 -13 C 15.492188 -12.09375 15.125 -11.109375 15.125 -10.046875 C 15.125 -9.367188 15.28125 -8.816406 15.59375 -8.390625 C 15.914062 -7.960938 16.375 -7.75 16.96875 -7.75 C 17.519531 -7.75 18.125 -7.972656 18.78125 -8.421875 C 19.4375 -8.867188 19.914062 -9.535156 20.21875 -10.421875 L 21.546875 -14.171875 C 20.828125 -14.304688 20.023438 -14.375 19.140625 -14.375 Z M 19.140625 -14.375 "/></g></g></g><g fill="#ffffff" fill-opacity="1"><g transform="translate(50.173993, 66.121139)"><g><path d="M 28.421875 -32.8125 C 29.222656 -32.8125 29.847656 -32.640625 30.296875 -32.296875 C 30.742188 -31.960938 30.96875 -31.5 30.96875 -30.90625 C 30.96875 -30.726562 30.921875 -30.429688 30.828125 -30.015625 C 30.285156 -28.148438 29.015625 -27.21875 27.015625 -27.21875 L 23.328125 -27.21875 L 18.5625 -11.5 C 18.351562 -10.863281 18.25 -10.207031 18.25 -9.53125 C 18.25 -8.769531 18.457031 -8.238281 18.875 -7.9375 C 19.300781 -7.644531 19.894531 -7.5 20.65625 -7.5 C 21.34375 -7.5 22.191406 -7.582031 23.203125 -7.75 C 23.710938 -7.882812 24.160156 -7.953125 24.546875 -7.953125 C 24.835938 -7.953125 25.054688 -7.851562 25.203125 -7.65625 C 25.359375 -7.46875 25.4375 -7.226562 25.4375 -6.9375 C 25.476562 -6.082031 24.847656 -5.050781 23.546875 -3.84375 C 22.253906 -2.632812 20.503906 -1.59375 18.296875 -0.71875 C 16.097656 0.144531 13.664062 0.578125 11 0.578125 C 8.113281 0.578125 5.800781 -0.078125 4.0625 -1.390625 C 2.332031 -2.710938 1.46875 -4.515625 1.46875 -6.796875 C 1.46875 -7.859375 1.632812 -8.878906 1.96875 -9.859375 L 6.046875 -22.4375 C 6.253906 -23.164062 6.359375 -23.738281 6.359375 -24.15625 C 6.359375 -25.007812 6.15625 -25.734375 5.75 -26.328125 C 5.351562 -26.921875 4.789062 -27.535156 4.0625 -28.171875 C 3.425781 -28.765625 2.984375 -29.257812 2.734375 -29.65625 C 2.484375 -30.0625 2.421875 -30.539062 2.546875 -31.09375 C 2.710938 -31.644531 3.070312 -32.066406 3.625 -32.359375 C 4.175781 -32.660156 5.046875 -32.8125 6.234375 -32.8125 L 9.796875 -32.8125 L 13.796875 -36.8125 C 15.191406 -38.207031 16.472656 -39.179688 17.640625 -39.734375 C 18.804688 -40.285156 20.320312 -40.5625 22.1875 -40.5625 C 24.851562 -40.5625 26.1875 -39.546875 26.1875 -37.515625 C 26.1875 -36.878906 26.101562 -36.285156 25.9375 -35.734375 L 25.046875 -32.8125 Z M 28.421875 -32.8125 "/></g></g></g><g fill="#ffffff" fill-opacity="1"><g transform="translate(77.510007, 66.121139)"><g><path d="M 21.546875 -33.953125 C 26.929688 -33.953125 30.832031 -33.09375 33.25 -31.375 C 35.664062 -29.65625 36.875 -27.460938 36.875 -24.796875 C 36.875 -23.992188 36.789062 -23.25 36.625 -22.5625 C 35.988281 -19.769531 34.21875 -17.769531 31.3125 -16.5625 C 28.40625 -15.351562 24.984375 -14.75 21.046875 -14.75 C 19.054688 -14.75 17.191406 -14.875 15.453125 -15.125 C 15.410156 -12.925781 16.003906 -11.378906 17.234375 -10.484375 C 18.460938 -9.597656 20.175781 -9.15625 22.375 -9.15625 C 23.394531 -9.15625 24.367188 -9.269531 25.296875 -9.5 C 26.234375 -9.738281 27.421875 -10.085938 28.859375 -10.546875 C 30.046875 -10.972656 30.851562 -11.1875 31.28125 -11.1875 C 31.75 -11.1875 31.984375 -10.910156 31.984375 -10.359375 C 32.023438 -8.878906 31.472656 -7.320312 30.328125 -5.6875 C 29.179688 -4.0625 27.484375 -2.675781 25.234375 -1.53125 C 22.992188 -0.382812 20.285156 0.1875 17.109375 0.1875 C 12.398438 0.1875 8.539062 -1 5.53125 -3.375 C 2.519531 -5.75 1.015625 -9.203125 1.015625 -13.734375 C 1.015625 -15.003906 1.1875 -16.488281 1.53125 -18.1875 C 2.582031 -23.394531 4.898438 -27.320312 8.484375 -29.96875 C 12.066406 -32.625 16.421875 -33.953125 21.546875 -33.953125 Z M 15.890625 -18.953125 C 16.066406 -18.898438 16.300781 -18.875 16.59375 -18.875 C 18.375 -18.875 19.726562 -19.703125 20.65625 -21.359375 C 21.59375 -23.015625 22.039062 -24.859375 22 -26.890625 C 21.957031 -28.078125 21.617188 -28.671875 20.984375 -28.671875 C 20.515625 -28.671875 19.960938 -28.300781 19.328125 -27.5625 C 18.691406 -26.820312 18.066406 -25.707031 17.453125 -24.21875 C 16.835938 -22.738281 16.316406 -20.984375 15.890625 -18.953125 Z M 15.890625 -18.953125 "/></g></g></g><g fill="#ffffff" fill-opacity="1"><g transform="translate(113.110387, 66.121139)"><g/></g></g><g fill="#ffffff" fill-opacity="1"><g transform="translate(125.824812, 66.121139)"><g><path d="M 28.421875 -32.8125 C 29.222656 -32.8125 29.847656 -32.640625 30.296875 -32.296875 C 30.742188 -31.960938 30.96875 -31.5 30.96875 -30.90625 C 30.96875 -30.726562 30.921875 -30.429688 30.828125 -30.015625 C 30.285156 -28.148438 29.015625 -27.21875 27.015625 -27.21875 L 23.328125 -27.21875 L 18.5625 -11.5 C 18.351562 -10.863281 18.25 -10.207031 18.25 -9.53125 C 18.25 -8.769531 18.457031 -8.238281 18.875 -7.9375 C 19.300781 -7.644531 19.894531 -7.5 20.65625 -7.5 C 21.34375 -7.5 22.191406 -7.582031 23.203125 -7.75 C 23.710938 -7.882812 24.160156 -7.953125 24.546875 -7.953125 C 24.835938 -7.953125 25.054688 -7.851562 25.203125 -7.65625 C 25.359375 -7.46875 25.4375 -7.226562 25.4375 -6.9375 C 25.476562 -6.082031 24.847656 -5.050781 23.546875 -3.84375 C 22.253906 -2.632812 20.503906 -1.59375 18.296875 -0.71875 C 16.097656 0.144531 13.664062 0.578125 11 0.578125 C 8.113281 0.578125 5.800781 -0.078125 4.0625 -1.390625 C 2.332031 -2.710938 1.46875 -4.515625 1.46875 -6.796875 C 1.46875 -7.859375 1.632812 -8.878906 1.96875 -9.859375 L 6.046875 -22.4375 C 6.253906 -23.164062 6.359375 -23.738281 6.359375 -24.15625 C 6.359375 -25.007812 6.15625 -25.734375 5.75 -26.328125 C 5.351562 -26.921875 4.789062 -27.535156 4.0625 -28.171875 C 3.425781 -28.765625 2.984375 -29.257812 2.734375 -29.65625 C 2.484375 -30.0625 2.421875 -30.539062 2.546875 -31.09375 C 2.710938 -31.644531 3.070312 -32.066406 3.625 -32.359375 C 4.175781 -32.660156 5.046875 -32.8125 6.234375 -32.8125 L 9.796875 -32.8125 L 13.796875 -36.8125 C 15.191406 -38.207031 16.472656 -39.179688 17.640625 -39.734375 C 18.804688 -40.285156 20.320312 -40.5625 22.1875 -40.5625 C 24.851562 -40.5625 26.1875 -39.546875 26.1875 -37.515625 C 26.1875 -36.878906 26.101562 -36.285156 25.9375 -35.734375 L 25.046875 -32.8125 Z M 28.421875 -32.8125 "/></g></g></g><g fill="#ffffff" fill-opacity="1"><g transform="translate(153.160825, 66.121139)"><g><path d="M 38.96875 -8.78125 C 38.882812 -8.601562 38.84375 -8.347656 38.84375 -8.015625 C 38.84375 -7.710938 38.914062 -7.476562 39.0625 -7.3125 C 39.21875 -7.144531 39.421875 -7.0625 39.671875 -7.0625 C 40.179688 -7.0625 40.613281 -7.28125 40.96875 -7.71875 C 41.332031 -8.164062 41.578125 -8.390625 41.703125 -8.390625 C 41.921875 -8.390625 42.09375 -8.25 42.21875 -7.96875 C 42.34375 -7.695312 42.40625 -7.375 42.40625 -7 C 42.445312 -5.769531 42.039062 -4.570312 41.1875 -3.40625 C 40.34375 -2.238281 39.101562 -1.28125 37.46875 -0.53125 C 35.84375 0.207031 33.882812 0.578125 31.59375 0.578125 C 28.800781 0.578125 26.578125 -0.0664062 24.921875 -1.359375 C 23.265625 -2.660156 22.414062 -4.390625 22.375 -6.546875 C 22.375 -8.117188 22.757812 -9.878906 23.53125 -11.828125 L 27.015625 -20.984375 C 27.234375 -21.535156 27.34375 -21.976562 27.34375 -22.3125 C 27.34375 -22.863281 27.160156 -23.296875 26.796875 -23.609375 C 26.429688 -23.929688 26 -24.09375 25.5 -24.09375 C 24.6875 -24.09375 23.867188 -23.722656 23.046875 -22.984375 C 22.222656 -22.242188 21.554688 -21.046875 21.046875 -19.390625 L 21.046875 -19.515625 L 17.03125 -6.609375 C 16.90625 -6.097656 16.84375 -5.65625 16.84375 -5.28125 C 16.84375 -4.726562 16.945312 -4.289062 17.15625 -3.96875 C 17.375 -3.65625 17.675781 -3.347656 18.0625 -3.046875 C 18.351562 -2.753906 18.5625 -2.507812 18.6875 -2.3125 C 18.8125 -2.125 18.832031 -1.882812 18.75 -1.59375 C 18.539062 -1.039062 18.117188 -0.632812 17.484375 -0.375 C 16.847656 -0.125 15.875 0 14.5625 0 L 0.0625 0 C -1.039062 0 -1.84375 -0.175781 -2.34375 -0.53125 C -2.851562 -0.894531 -3.023438 -1.375 -2.859375 -1.96875 C -2.691406 -2.476562 -2.25 -2.925781 -1.53125 -3.3125 C -0.894531 -3.644531 -0.363281 -4.046875 0.0625 -4.515625 C 0.488281 -4.984375 0.847656 -5.722656 1.140625 -6.734375 L 10.8125 -38.46875 C 10.9375 -38.84375 11 -39.160156 11 -39.421875 C 11 -39.890625 10.878906 -40.269531 10.640625 -40.5625 C 10.410156 -40.863281 10.109375 -41.160156 9.734375 -41.453125 C 9.304688 -41.796875 8.992188 -42.09375 8.796875 -42.34375 C 8.609375 -42.59375 8.578125 -42.929688 8.703125 -43.359375 C 8.960938 -44.335938 10.300781 -45.1875 12.71875 -45.90625 C 15.132812 -46.625 17.65625 -46.984375 20.28125 -46.984375 C 22.738281 -46.984375 24.550781 -46.515625 25.71875 -45.578125 C 26.882812 -44.648438 27.46875 -43.378906 27.46875 -41.765625 C 27.46875 -40.835938 27.316406 -39.925781 27.015625 -39.03125 L 23.59375 -27.84375 C 25.238281 -30.007812 26.984375 -31.515625 28.828125 -32.359375 C 30.671875 -33.210938 32.675781 -33.640625 34.84375 -33.640625 C 37.425781 -33.640625 39.507812 -32.851562 41.09375 -31.28125 C 42.6875 -29.707031 43.484375 -27.671875 43.484375 -25.171875 C 43.484375 -23.859375 43.273438 -22.566406 42.859375 -21.296875 Z M 38.96875 -8.78125 "/></g></g></g><g fill="#ffffff" fill-opacity="1"><g transform="translate(198.297023, 66.121139)"><g><path d="M 22.703125 -33.640625 C 27.578125 -33.640625 31.472656 -32.738281 34.390625 -30.9375 C 37.316406 -29.132812 38.78125 -26.390625 38.78125 -22.703125 C 38.78125 -21.296875 38.523438 -19.703125 38.015625 -17.921875 L 35.40625 -9.15625 C 35.363281 -8.988281 35.34375 -8.773438 35.34375 -8.515625 C 35.34375 -7.835938 35.617188 -7.5 36.171875 -7.5 C 36.679688 -7.5 37.113281 -7.722656 37.46875 -8.171875 C 37.832031 -8.617188 38.078125 -8.84375 38.203125 -8.84375 C 38.421875 -8.84375 38.601562 -8.691406 38.75 -8.390625 C 38.894531 -8.097656 38.96875 -7.757812 38.96875 -7.375 C 39.007812 -6.226562 38.570312 -5.0625 37.65625 -3.875 C 36.75 -2.6875 35.53125 -1.710938 34 -0.953125 C 32.476562 -0.191406 30.804688 0.1875 28.984375 0.1875 C 26.785156 0.1875 24.898438 -0.210938 23.328125 -1.015625 C 21.765625 -1.816406 20.6875 -3.003906 20.09375 -4.578125 C 18.820312 -3.046875 17.316406 -1.867188 15.578125 -1.046875 C 13.835938 -0.222656 11.972656 0.1875 9.984375 0.1875 C 7.734375 0.1875 5.84375 -0.242188 4.3125 -1.109375 C 2.789062 -1.984375 1.660156 -3.109375 0.921875 -4.484375 C 0.179688 -5.859375 -0.1875 -7.3125 -0.1875 -8.84375 C -0.1875 -9.519531 -0.125 -10.175781 0 -10.8125 C 0.675781 -13.726562 2.144531 -15.925781 4.40625 -17.40625 C 6.675781 -18.894531 9.382812 -19.640625 12.53125 -19.640625 C 16.039062 -19.640625 19.492188 -19.09375 22.890625 -18 L 24.484375 -22.1875 C 25.023438 -23.96875 25.296875 -25.347656 25.296875 -26.328125 C 25.253906 -27.335938 24.914062 -28.097656 24.28125 -28.609375 C 23.644531 -29.117188 22.671875 -29.375 21.359375 -29.375 C 21.617188 -28.695312 21.75 -28 21.75 -27.28125 C 21.75 -25.707031 21.15625 -24.347656 19.96875 -23.203125 C 18.78125 -22.054688 17.082031 -21.484375 14.875 -21.484375 C 12.800781 -21.484375 11.179688 -21.9375 10.015625 -22.84375 C 8.847656 -23.757812 8.265625 -24.894531 8.265625 -26.25 C 8.265625 -28.375 9.453125 -30.132812 11.828125 -31.53125 C 14.203125 -32.9375 17.828125 -33.640625 22.703125 -33.640625 Z M 19.140625 -14.375 C 17.953125 -14.375 16.984375 -13.914062 16.234375 -13 C 15.492188 -12.09375 15.125 -11.109375 15.125 -10.046875 C 15.125 -9.367188 15.28125 -8.816406 15.59375 -8.390625 C 15.914062 -7.960938 16.375 -7.75 16.96875 -7.75 C 17.519531 -7.75 18.125 -7.972656 18.78125 -8.421875 C 19.4375 -8.867188 19.914062 -9.535156 20.21875 -10.421875 L 21.546875 -14.171875 C 20.828125 -14.304688 20.023438 -14.375 19.140625 -14.375 Z M 19.140625 -14.375 "/></g></g></g><g fill="#ffffff" fill-opacity="1"><g transform="translate(239.873196, 66.121139)"><g><path d="M 28.421875 -32.8125 C 29.222656 -32.8125 29.847656 -32.640625 30.296875 -32.296875 C 30.742188 -31.960938 30.96875 -31.5 30.96875 -30.90625 C 30.96875 -30.726562 30.921875 -30.429688 30.828125 -30.015625 C 30.285156 -28.148438 29.015625 -27.21875 27.015625 -27.21875 L 23.328125 -27.21875 L 18.5625 -11.5 C 18.351562 -10.863281 18.25 -10.207031 18.25 -9.53125 C 18.25 -8.769531 18.457031 -8.238281 18.875 -7.9375 C 19.300781 -7.644531 19.894531 -7.5 20.65625 -7.5 C 21.34375 -7.5 22.191406 -7.582031 23.203125 -7.75 C 23.710938 -7.882812 24.160156 -7.953125 24.546875 -7.953125 C 24.835938 -7.953125 25.054688 -7.851562 25.203125 -7.65625 C 25.359375 -7.46875 25.4375 -7.226562 25.4375 -6.9375 C 25.476562 -6.082031 24.847656 -5.050781 23.546875 -3.84375 C 22.253906 -2.632812 20.503906 -1.59375 18.296875 -0.71875 C 16.097656 0.144531 13.664062 0.578125 11 0.578125 C 8.113281 0.578125 5.800781 -0.078125 4.0625 -1.390625 C 2.332031 -2.710938 1.46875 -4.515625 1.46875 -6.796875 C 1.46875 -7.859375 1.632812 -8.878906 1.96875 -9.859375 L 6.046875 -22.4375 C 6.253906 -23.164062 6.359375 -23.738281 6.359375 -24.15625 C 6.359375 -25.007812 6.15625 -25.734375 5.75 -26.328125 C 5.351562 -26.921875 4.789062 -27.535156 4.0625 -28.171875 C 3.425781 -28.765625 2.984375 -29.257812 2.734375 -29.65625 C 2.484375 -30.0625 2.421875 -30.539062 2.546875 -31.09375 C 2.710938 -31.644531 3.070312 -32.066406 3.625 -32.359375 C 4.175781 -32.660156 5.046875 -32.8125 6.234375 -32.8125 L 9.796875 -32.8125 L 13.796875 -36.8125 C 15.191406 -38.207031 16.472656 -39.179688 17.640625 -39.734375 C 18.804688 -40.285156 20.320312 -40.5625 22.1875 -40.5625 C 24.851562 -40.5625 26.1875 -39.546875 26.1875 -37.515625 C 26.1875 -36.878906 26.101562 -36.285156 25.9375 -35.734375 L 25.046875 -32.8125 Z M 28.421875 -32.8125 "/></g></g></g><g fill="#ffffff" fill-opacity="1"><g transform="translate(267.210016, 66.121139)"><g/></g></g></g></g></svg>